<svg width="1440" height="172" viewBox="0 0 1440 172" fill="none" xmlns="http://www.w3.org/2000/svg">
<rect x="-66" y="83.9287" width="1600" height="88" transform="rotate(-3 -66 83.9287)" fill="#0C0F03"/>
<path d="M112.391 111.051L112.074 110.948C110.462 110.423 108.964 110.202 107.579 110.274C106.205 110.346 105.195 110.692 104.505 111.273C103.826 111.844 103.509 112.592 103.56 113.557C103.62 114.699 104.246 115.566 105.537 116.163C106.141 116.426 106.797 116.67 107.507 116.895C108.254 117.107 109.002 117.355 109.752 117.638C110.512 117.926 111.214 118.262 111.856 118.65C112.533 119.058 113.088 119.642 113.523 120.391C113.888 121.007 114.117 121.764 114.22 122.651L113.806 114.751L113.788 114.415L114.125 114.397L115.985 114.3L116.321 114.282L116.339 114.619L116.432 116.392C116.716 115.979 117.072 115.582 117.497 115.202C118.328 114.439 119.277 114.021 120.336 113.965C121.325 113.913 122.156 113.968 122.814 114.143C123.477 114.296 124.012 114.552 124.374 114.939L124.379 114.944L124.379 114.944C124.913 115.54 125.192 116.316 125.24 117.242L125.676 125.557C125.701 126.027 125.806 126.341 125.955 126.54C126.151 126.757 126.287 126.807 126.365 126.809L126.381 126.81L126.397 126.812L126.662 126.846L127.455 126.804L127.792 126.787L127.809 127.123L127.821 127.336L127.838 127.673L127.501 127.69L125.881 127.775C125.111 127.816 124.457 127.681 123.965 127.32L123.959 127.315L123.959 127.315C123.536 126.989 123.244 126.607 123.195 126.159L123.195 126.16L123.53 126.122L123.195 126.159L112.391 111.051ZM112.391 111.051L112.498 110.737L112.59 110.465L112.706 110.127L112.361 110.032C110.491 109.515 108.659 109.303 106.867 109.397C105.085 109.49 103.708 109.981 102.801 110.925C101.903 111.842 101.497 113.004 101.569 114.38C101.66 116.121 102.46 117.446 103.95 118.319C104.59 118.705 105.29 119.049 106.048 119.353L106.048 119.354L106.054 119.356C106.798 119.637 107.533 119.91 108.258 120.174L108.261 120.175C108.99 120.434 109.656 120.72 110.262 121.035C111.557 121.713 112.207 122.685 112.274 123.969C112.336 125.155 111.92 126.053 111.025 126.708C110.113 127.371 108.974 127.746 107.592 127.819C106.653 127.868 105.723 127.78 104.803 127.554C103.895 127.309 103.163 126.982 102.595 126.581L102.288 126.365L102.106 126.693L101.984 126.913L101.829 127.192L102.1 127.362C103.765 128.404 105.724 128.858 107.96 128.741C109.153 128.679 110.199 128.488 111.092 128.163L111.092 128.163L111.096 128.161C112.034 127.806 112.811 127.191 113.426 126.329C113.968 125.569 114.249 124.697 114.276 123.722L112.391 111.051ZM126.326 127.483L126.311 127.481L126.32 127.415L126.057 127.428C126.143 127.459 126.233 127.478 126.326 127.483ZM126.326 127.483C126.332 127.483 126.338 127.483 126.344 127.483L126.346 127.413L126.622 127.399L126.66 127.397L127.147 127.371L127.484 127.354L127.49 127.478L126.667 127.521L126.636 127.523L126.606 127.519L126.326 127.483ZM126.354 127.146L126.649 127.184M126.354 127.146L126.643 127.06L126.649 127.184M126.354 127.146C126.275 127.144 126.195 127.124 126.114 127.088L126.354 127.146ZM126.649 127.184L127.136 127.159L127.473 127.141L127.466 127.017L126.665 127.059L126.649 127.184ZM117.723 115.452C118.503 114.736 119.379 114.353 120.353 114.302C120.371 114.301 120.389 114.3 120.407 114.299C120.881 114.276 121.313 114.279 121.7 114.307C121.316 114.19 120.88 114.15 120.4 114.175C120.382 114.176 120.365 114.177 120.347 114.178C119.332 114.243 118.426 114.64 117.633 115.351L117.723 115.452ZM117.723 115.452L117.632 115.352C117.478 115.49 117.329 115.639 117.184 115.8M117.723 115.452C117.564 115.594 117.416 115.738 117.278 115.884L117.185 115.798C117.185 115.799 117.185 115.799 117.184 115.8M117.184 115.8C117.184 115.8 117.184 115.8 117.183 115.801L117.277 115.885L116.45 116.728C116.649 116.424 116.895 116.114 117.184 115.8ZM121.677 115.013C121.679 115.014 121.682 115.015 121.684 115.016L121.813 114.705L121.669 115.01C121.672 115.011 121.674 115.012 121.677 115.013ZM116.314 117.749L116.481 117.772C116.671 117.207 117.015 116.653 117.527 116.112C117.527 116.111 117.527 116.111 117.527 116.111C117.657 115.974 117.797 115.838 117.948 115.703L117.948 115.703L117.951 115.7C118.678 115.033 119.482 114.685 120.371 114.638C120.389 114.637 120.407 114.637 120.424 114.636C120.873 114.614 121.277 114.616 121.637 114.641C121.292 114.53 120.885 114.487 120.418 114.511C120.4 114.512 120.382 114.513 120.365 114.515C119.436 114.575 118.601 114.937 117.86 115.6C117.859 115.601 117.858 115.602 117.858 115.602C117.713 115.732 117.571 115.873 117.434 116.026C117.004 116.494 116.687 116.934 116.482 117.345L116.314 117.749ZM127.38 115.533L127.379 115.535C126.164 116.904 125.638 118.749 125.758 121.024C125.877 123.294 126.568 125.008 127.892 126.09C129.193 127.154 130.822 127.623 132.749 127.522C134.707 127.419 136.303 126.693 137.509 125.334C138.742 123.965 139.277 122.119 139.157 119.843C139.038 117.573 138.347 115.859 137.023 114.777C135.722 113.712 134.084 113.245 132.139 113.346C130.198 113.448 128.603 114.175 127.38 115.533ZM129.249 116.062L129.25 116.06C130.021 114.887 131.013 114.294 132.239 114.23C133.485 114.164 134.492 114.582 135.29 115.487C136.085 116.388 136.567 117.861 136.677 119.973C136.787 122.055 136.435 123.663 135.667 124.833C134.896 125.987 133.904 126.573 132.676 126.637C131.43 126.703 130.423 126.285 129.625 125.38C128.83 124.479 128.349 123.014 128.239 120.921C128.129 118.819 128.481 117.213 129.249 116.062ZM156.528 112.434L156.295 112.692L156.561 112.917C156.766 113.09 156.904 113.371 156.928 113.823C156.952 114.29 156.876 114.678 156.714 114.999L156.708 115.012L156.702 115.026L153.589 122.814L149.269 112.776L149.176 112.56L148.942 112.572L147.082 112.67L146.6 112.695L146.79 113.139L147.859 115.643L144.822 123.272L140.503 113.235L140.41 113.02L140.175 113.032L138.316 113.129L137.831 113.155L138.024 113.6L143.661 126.624L143.754 126.839L143.988 126.826L144.254 126.812L144.471 126.801L144.55 126.599L148.388 116.833L152.428 126.164L152.521 126.379L152.755 126.367L153.021 126.353L153.237 126.342L153.317 126.14L157.595 115.26L157.595 115.26L157.597 115.253C157.798 114.709 157.888 114.171 157.86 113.641C157.852 113.491 157.823 113.338 157.777 113.183C157.736 112.978 157.627 112.783 157.485 112.598C157.423 112.508 157.362 112.428 157.302 112.362C157.243 112.299 157.164 112.226 157.064 112.182L156.841 112.085L156.679 112.266L156.528 112.434Z" fill="white" stroke="white" stroke-width="0.674298"/>
<path d="M161.614 107.236C162.007 106.558 162.645 106.01 163.553 105.847L164.258 123.717L164.257 123.717L164.258 123.722C164.269 123.932 164.345 124.141 164.459 124.342C165.008 125.31 166.192 125.663 167.783 125.579L168.606 125.536L168.943 125.519L168.925 125.182L168.914 124.969L168.896 124.633L168.56 124.65L167.767 124.692L167.502 124.658L167.486 124.656L167.469 124.655C167.392 124.653 167.255 124.604 167.059 124.386C166.911 124.187 166.806 123.873 166.781 123.403L165.837 105.392L165.82 105.061L165.488 105.073L163.863 105.131L163.525 105.143L163.526 105.156C161.792 105.31 160.478 105.815 159.655 106.728C158.775 107.686 158.432 109.192 158.535 111.156L158.583 112.067L158.361 112.079L158.025 112.097L158.042 112.433L158.065 112.863L158.083 113.199L158.419 113.182L158.64 113.17L159.296 125.687L159.314 126.023L159.651 126.006L161.51 125.908L161.847 125.891L161.829 125.554L161.173 113.037L162.935 112.945L163.272 112.927L163.254 112.591L163.232 112.161L163.214 111.825L162.877 111.842L161.116 111.935L161.068 111.023C160.973 109.214 161.175 107.975 161.612 107.239L161.612 107.239L161.614 107.236ZM175.737 114.099L175.944 118.057C175.643 118.055 175.321 118.063 174.978 118.081C174.489 118.106 173.959 118.161 173.389 118.245C172.24 118.377 171.285 118.562 170.528 118.805C169.776 119.045 169.189 119.352 168.813 119.748C168.476 120.102 168.238 120.46 168.162 120.82C168.101 121.112 168.075 121.392 168.088 121.656C168.1 121.887 168.132 122.116 168.182 122.343C168.398 123.405 168.865 124.225 169.61 124.757C170.352 125.288 171.323 125.5 172.487 125.44C173.49 125.387 174.364 125.134 175.097 124.666C175.571 124.364 175.978 123.976 176.319 123.508C176.451 123.787 176.691 124.053 176.984 124.306C177.558 124.839 178.514 125.017 179.733 124.953L180.557 124.91L180.619 124.907L180.894 124.892L180.956 124.889L182.816 124.792L183.152 124.774L183.135 124.437L182.806 118.161L183.133 117.744L188.161 124.364L188.269 124.506L188.447 124.497L190.307 124.399L190.943 124.366L190.558 123.858L184.565 115.972L188.476 111.062L188.942 110.476L188.194 110.516L187.929 110.529L187.777 110.537L187.683 110.656L182.737 116.856L182.091 104.514L182.073 104.177L181.736 104.194L179.877 104.292L179.54 104.31L179.558 104.646L180.573 124.021L180.511 124.024L179.717 124.066L179.453 124.032L179.436 124.03L179.42 124.029C179.343 124.027 179.206 123.977 179.01 123.76C178.862 123.561 178.756 123.247 178.732 122.777L178.265 113.877C178.23 113.211 177.925 112.608 177.392 112.073C177.021 111.699 176.493 111.455 175.844 111.314C175.194 111.174 174.4 111.132 173.471 111.181C171.79 111.269 170.159 111.73 168.581 112.56L168.255 112.731L168.454 113.041L168.57 113.221L168.751 113.503L169.034 113.323C169.392 113.095 169.985 112.842 170.833 112.569L170.833 112.569L170.838 112.567C171.692 112.279 172.424 112.124 173.039 112.092C173.668 112.059 174.154 112.119 174.511 112.253L174.511 112.253L174.523 112.257C174.908 112.385 175.13 112.536 175.243 112.683C175.398 112.883 175.519 113.09 175.608 113.304L175.614 113.318L175.621 113.332C175.721 113.522 175.733 113.636 175.724 113.695C175.709 113.773 175.698 113.859 175.702 113.939C175.704 113.979 175.711 114.038 175.737 114.099ZM176.142 121.831C176.12 122.303 175.82 122.87 175.124 123.535C174.469 124.159 173.72 124.487 172.865 124.531C172.239 124.564 171.779 124.385 171.439 124.021C171.087 123.644 170.829 123.03 170.705 122.13L170.705 122.13L170.704 122.125C170.679 121.957 170.663 121.81 170.656 121.682C170.618 120.961 170.778 120.431 171.094 120.049C171.236 119.878 171.49 119.701 171.894 119.539C172.295 119.377 172.819 119.238 173.473 119.126C173.936 119.05 174.4 118.999 174.865 118.975C175.245 118.955 175.621 118.946 175.991 118.948L176.142 121.831ZM191.668 116.336L200.847 115.855L201.184 115.838L201.166 115.501L201.166 115.5L201.166 115.5L201.166 115.499L201.166 115.499L201.166 115.498L201.166 115.498L201.166 115.497L201.166 115.497L201.166 115.496L201.166 115.496L201.166 115.495L201.166 115.495L201.166 115.494L201.166 115.494L201.166 115.493L201.166 115.493L201.166 115.492L201.166 115.492L201.166 115.491L201.166 115.491L201.165 115.49L201.165 115.49L201.165 115.489L201.165 115.488L201.165 115.488L201.165 115.487L201.165 115.487L201.165 115.486L201.165 115.486L201.165 115.485L201.165 115.485L201.165 115.484L201.165 115.484L201.165 115.483L201.165 115.483L201.165 115.482L201.165 115.482L201.165 115.481L201.165 115.481L201.165 115.48L201.165 115.48L201.165 115.479L201.165 115.479L201.165 115.478L201.165 115.478L201.165 115.477L201.165 115.477L201.165 115.476L201.165 115.476L201.165 115.475L201.165 115.474L201.165 115.474L201.165 115.473L201.165 115.473L201.165 115.472L201.165 115.472L201.165 115.471L201.164 115.471L201.164 115.47L201.164 115.47L201.164 115.469L201.164 115.469L201.164 115.468L201.164 115.468L201.164 115.467L201.164 115.467L201.164 115.466L201.164 115.466L201.164 115.465L201.164 115.465L201.164 115.464L201.164 115.464L201.164 115.463L201.164 115.463L201.164 115.462L201.164 115.461L201.164 115.461L201.164 115.46L201.164 115.46L201.164 115.459L201.164 115.459L201.164 115.458L201.164 115.458L201.164 115.457L201.164 115.457L201.164 115.456L201.164 115.456L201.164 115.455L201.164 115.455L201.164 115.454L201.164 115.454L201.164 115.453L201.164 115.453L201.164 115.452L201.163 115.452L201.163 115.451L201.163 115.451L201.163 115.45L201.163 115.45L201.163 115.449L201.163 115.449L201.163 115.448L201.163 115.447L201.163 115.447L201.163 115.446L201.163 115.446L201.163 115.445L201.163 115.445L201.163 115.444L201.163 115.444L201.163 115.443L201.163 115.443L201.163 115.442L201.163 115.442L201.163 115.441L201.163 115.441L201.163 115.44L201.163 115.44L201.163 115.439L201.163 115.439L201.163 115.438L201.163 115.438L201.163 115.437L201.163 115.437L201.163 115.436L201.163 115.436L201.163 115.435L201.163 115.435L201.163 115.434L201.163 115.433L201.163 115.433L201.162 115.432L201.162 115.432L201.162 115.431L201.162 115.431L201.162 115.43L201.162 115.43L201.162 115.429L201.162 115.429L201.162 115.428L201.162 115.428L201.162 115.427L201.162 115.427L201.162 115.426L201.162 115.426L201.162 115.425L201.162 115.425L201.162 115.424L201.162 115.424L201.162 115.423L201.162 115.423L201.162 115.422L201.162 115.422L201.162 115.421L201.162 115.421L201.162 115.42L201.162 115.419L201.162 115.419L201.162 115.418L201.162 115.418L201.162 115.417L201.162 115.417L201.162 115.416L201.162 115.416L201.162 115.415L201.162 115.415L201.162 115.414L201.161 115.414L201.161 115.413L201.161 115.413L201.161 115.412L201.161 115.412L201.161 115.411L201.161 115.411L201.161 115.41L201.161 115.41L201.161 115.409L201.161 115.409L201.161 115.408L201.161 115.408L201.161 115.407L201.161 115.406L201.161 115.406L201.161 115.405L201.161 115.405L201.161 115.404L201.161 115.404L201.161 115.403L201.161 115.403L201.161 115.402L201.161 115.402L201.161 115.401L201.161 115.401L201.161 115.4L201.161 115.4L201.161 115.399L201.161 115.399L201.161 115.398L201.161 115.398L201.161 115.397L201.161 115.397L201.161 115.396L201.161 115.396L201.161 115.395L201.16 115.395L201.16 115.394L201.16 115.394L201.16 115.393L201.16 115.392L201.16 115.392L201.16 115.391L201.16 115.391L201.16 115.39L201.16 115.39L201.16 115.389L201.16 115.389L201.16 115.388L201.16 115.388L201.16 115.387L201.16 115.387L201.16 115.386L201.16 115.386L201.16 115.385L201.16 115.385L201.16 115.384L201.16 115.384L201.16 115.383L201.16 115.383L201.16 115.382L201.16 115.382L201.16 115.381L201.16 115.381L201.16 115.38L201.16 115.38L201.16 115.379L201.16 115.378L201.16 115.378L201.16 115.377L201.16 115.377L201.16 115.376L201.16 115.376L201.159 115.375L201.159 115.375L201.159 115.374L201.159 115.374L201.159 115.373L201.159 115.373L201.159 115.372L201.159 115.372L201.159 115.371L201.159 115.371L201.159 115.37L201.159 115.37L201.159 115.369L201.159 115.369L201.159 115.368L201.159 115.368L201.159 115.367L201.159 115.367L201.159 115.366L201.159 115.366L201.159 115.365L201.159 115.364L201.159 115.364L201.159 115.363L201.159 115.363L201.159 115.362L201.159 115.362L201.159 115.361L201.159 115.361L201.159 115.36L201.159 115.36L201.159 115.359L201.159 115.359L201.159 115.358L201.159 115.358L201.159 115.357L201.159 115.357L201.158 115.356L201.158 115.356L201.158 115.355L201.158 115.355L201.158 115.354L201.158 115.354L201.158 115.353L201.158 115.353L201.158 115.352L201.158 115.351L201.158 115.351L201.158 115.35L201.158 115.35L201.158 115.349L201.158 115.349L201.158 115.348L201.158 115.348L201.158 115.347L201.158 115.347L201.158 115.346L201.158 115.346L201.158 115.345L201.158 115.345L201.158 115.344L201.158 115.344L201.158 115.343L201.158 115.343L201.158 115.342L201.158 115.342L201.158 115.341L201.158 115.341L201.158 115.34L201.158 115.34L201.158 115.339L201.158 115.339L201.158 115.338L201.158 115.337L201.157 115.337L201.157 115.336L201.157 115.336L201.157 115.335L201.157 115.335L201.157 115.334L201.157 115.334L201.157 115.333L201.157 115.333L201.157 115.332L201.157 115.332L201.157 115.331L201.157 115.331L201.157 115.33L201.157 115.33L201.157 115.329L201.157 115.329L201.157 115.328L201.157 115.328L201.157 115.327L201.157 115.327L201.157 115.326L201.157 115.326L201.157 115.325L201.157 115.325L201.157 115.324L201.157 115.323L201.157 115.323L201.157 115.322L201.157 115.322L201.157 115.321L201.157 115.321L201.157 115.32L201.157 115.32L201.157 115.319L201.157 115.319L201.156 115.318L201.156 115.318L201.156 115.317L201.156 115.317L201.156 115.316L201.156 115.316L201.156 115.315L201.156 115.315L201.156 115.314L201.156 115.314L201.156 115.313L201.156 115.313L201.156 115.312L201.156 115.312L201.156 115.311L201.156 115.311L201.156 115.31L201.156 115.309L201.156 115.309L201.156 115.308L201.156 115.308L201.156 115.307L201.156 115.307L201.156 115.306L201.156 115.306L201.156 115.305L201.156 115.305L201.156 115.304L201.156 115.304L201.156 115.303L201.156 115.303L201.156 115.302L201.156 115.302L201.156 115.301L201.156 115.301L201.156 115.3L201.156 115.3L201.155 115.299L201.155 115.299L201.155 115.298L201.155 115.298L201.155 115.297L201.155 115.296L201.155 115.296L201.155 115.295L201.155 115.295L201.155 115.294L201.155 115.294L201.155 115.293L201.155 115.293L201.155 115.292L201.155 115.292L201.155 115.291L201.155 115.291L201.155 115.29L201.155 115.29L201.155 115.289L201.155 115.289L201.155 115.288L201.155 115.288L201.155 115.287L201.155 115.287L201.155 115.286L201.155 115.286L201.155 115.285L201.155 115.285L201.155 115.284L201.155 115.284L201.155 115.283L201.155 115.282L201.155 115.282L201.155 115.281L201.155 115.281L201.155 115.28L201.154 115.28L201.154 115.279L201.154 115.279L201.154 115.278L201.154 115.278L201.154 115.277L201.154 115.277L201.154 115.276L201.154 115.276L201.154 115.275L201.154 115.275L201.154 115.274L201.154 115.274L201.154 115.273L201.154 115.273L201.154 115.272L201.154 115.272L201.154 115.271L201.154 115.271L201.154 115.27L201.154 115.27L201.154 115.269L201.154 115.268L201.154 115.268L201.154 115.267L201.154 115.267L201.154 115.266L201.154 115.266L201.154 115.265L201.154 115.265L201.154 115.264L201.154 115.264L201.154 115.263L201.154 115.263L201.154 115.262L201.154 115.262L201.154 115.261L201.153 115.261L201.153 115.26L201.153 115.26L201.153 115.259L201.153 115.259L201.153 115.258L201.153 115.258L201.153 115.257L201.153 115.257L201.153 115.256L201.153 115.256L201.153 115.255L201.153 115.254L201.153 115.254L201.153 115.253L201.153 115.253L201.153 115.252L201.153 115.252L201.153 115.251L201.153 115.251L201.153 115.25L201.153 115.25L201.153 115.249L201.153 115.249L201.153 115.248L201.153 115.248L201.153 115.247L201.153 115.247L201.153 115.246L201.153 115.246L201.153 115.245L201.153 115.245L201.153 115.244L201.153 115.244L201.153 115.243L201.153 115.243L201.152 115.242L201.152 115.242L201.152 115.241L201.152 115.24L201.152 115.24L201.152 115.239L201.152 115.239L201.152 115.238L201.152 115.238L201.152 115.237L201.152 115.237L201.152 115.236L201.152 115.236L201.152 115.235C201.06 113.468 200.469 112.106 199.334 111.214C198.226 110.342 196.899 109.953 195.374 110.033C193.483 110.132 191.939 110.858 190.769 112.216C189.592 113.584 189.086 115.427 189.205 117.699C189.324 119.965 189.986 121.678 191.253 122.765C192.5 123.834 194.061 124.309 195.904 124.212C197.727 124.117 199.358 123.751 200.79 123.108L201.108 122.965L200.954 122.651L200.865 122.469L200.721 122.178L200.425 122.31C199.116 122.894 197.595 123.235 195.858 123.326C194.709 123.387 193.765 122.973 192.998 122.066C192.252 121.162 191.794 119.659 191.681 117.49C191.66 117.095 191.656 116.71 191.668 116.336ZM197.577 111.901C198.144 112.552 198.516 113.595 198.649 115.082L191.736 115.444C191.898 114.106 192.299 113.054 192.92 112.269C193.622 111.402 194.418 110.971 195.314 110.924C196.217 110.877 196.963 111.196 197.577 111.901Z" fill="white" stroke="white" stroke-width="0.674298"/>
<path d="M202.64 103.157L202.676 103.858L201.878 103.9L201.99 106.035L201.233 106.075L201.121 103.94L200.323 103.982L200.286 103.28L202.64 103.157Z" fill="white"/>
<path d="M205.747 102.951L205.899 105.843L205.141 105.883L205.068 104.479L204.548 105.168L204.321 105.18L203.731 104.549L203.805 105.953L203.047 105.993L202.896 103.1L203.163 103.086L204.386 104.259L205.48 102.965L205.747 102.951Z" fill="white"/>
<path fill-rule="evenodd" clip-rule="evenodd" d="M81.3861 125.136L81.8526 134.257L83.781 134.159L83.3123 124.995L87.2729 133.272L89.0146 132.438L85.0811 124.218L91.8461 130.325L93.1399 128.891L86.3453 122.758L94.9715 125.819L95.6173 124L86.9901 120.938L96.1316 120.459L96.0305 118.531L86.911 119.009L95.1572 115.086L94.3278 113.342L86.1193 117.247L92.2363 110.523L90.808 109.224L84.6129 116.034L87.689 107.356L85.8691 106.711L82.8175 115.319L82.3511 106.198L80.4228 106.296L80.8915 115.462L76.9298 107.183L75.1881 108.017L79.1216 116.237L72.3575 110.131L71.0636 111.564L77.857 117.697L69.232 114.636L68.5862 116.455L77.2125 119.517L68.0713 119.996L68.1724 121.924L77.2919 121.446L69.0451 125.369L69.8746 127.113L78.0879 123.206L71.9673 129.934L73.3956 131.233L79.5897 124.424L76.5144 133.099L78.3343 133.745L81.3861 125.136Z" fill="white"/>
<path d="M307.702 111.305L308.222 121.227L311.446 121.058L310.893 110.491C310.822 109.154 310.474 107.987 309.847 106.99C309.22 105.993 308.39 105.234 307.357 104.714C306.348 104.192 305.199 103.965 303.909 104.032C302.619 104.1 301.477 104.459 300.481 105.11C299.73 105.582 299.115 106.17 298.634 106.872L298.07 96.1128L294.846 96.2817L296.187 121.858L299.41 121.689L298.89 111.767C298.845 110.907 298.996 110.133 299.343 109.444C299.69 108.755 300.188 108.202 300.837 107.785C301.486 107.368 302.24 107.137 303.099 107.092C304.389 107.024 305.462 107.387 306.317 108.18C307.173 108.974 307.635 110.015 307.702 111.305Z" fill="white"/>
<path d="M317.071 120.189C318.226 120.751 319.508 120.995 320.917 120.921C322.349 120.846 323.587 120.47 324.629 119.793C325.694 119.09 326.507 118.162 327.069 117.007C327.631 115.852 327.873 114.534 327.796 113.053L327.278 103.167L324.054 103.336L324.564 113.079C324.638 114.488 324.338 115.617 323.664 116.467C322.989 117.292 322.019 117.738 320.753 117.805C319.917 117.848 319.18 117.708 318.54 117.382C317.9 117.056 317.396 116.568 317.026 115.917C316.68 115.24 316.482 114.437 316.433 113.505L315.922 103.762L312.699 103.931L313.217 113.817C313.294 115.298 313.673 116.583 314.353 117.673C315.032 118.763 315.938 119.602 317.071 120.189Z" fill="white"/>
<path fill-rule="evenodd" clip-rule="evenodd" d="M338.599 119.994C336.903 120.083 335.355 119.781 333.953 119.088C332.551 118.372 331.421 117.365 330.563 116.069C329.704 114.773 329.231 113.278 329.142 111.582C329.054 109.91 329.358 108.386 330.052 107.008C330.77 105.63 331.765 104.524 333.039 103.691C334.335 102.833 335.807 102.361 337.454 102.274C339.031 102.192 340.434 102.477 341.666 103.131C342.921 103.784 343.917 104.725 344.652 105.956C345.411 107.185 345.832 108.6 345.916 110.2C345.928 110.439 345.93 110.702 345.921 110.99C345.911 111.254 345.88 111.567 345.827 111.929L332.502 112.627C332.65 113.284 332.885 113.882 333.206 114.422C333.73 115.281 334.447 115.938 335.357 116.393C336.265 116.824 337.293 117.01 338.439 116.95C339.394 116.9 340.257 116.687 341.028 116.311C341.822 115.934 342.488 115.396 343.026 114.698L345.215 116.702C344.453 117.7 343.488 118.481 342.32 119.045C341.177 119.608 339.936 119.924 338.599 119.994ZM332.845 108.227C332.604 108.748 332.445 109.319 332.368 109.94L342.723 109.398C342.598 108.698 342.383 108.087 342.078 107.564C341.629 106.773 341.024 106.182 340.261 105.791C339.497 105.376 338.589 105.196 337.539 105.251C336.44 105.309 335.485 105.598 334.675 106.12C333.864 106.641 333.254 107.344 332.845 108.227Z" fill="white"/>
<path d="M348.415 118.043C349.155 118.459 349.95 118.777 350.8 118.996C351.672 119.19 352.586 119.261 353.541 119.211C355.451 119.111 356.943 118.566 358.017 117.576C359.114 116.584 359.621 115.289 359.537 113.689C359.482 112.638 359.211 111.802 358.723 111.181C358.26 110.559 357.672 110.075 356.959 109.729C356.246 109.383 355.502 109.123 354.727 108.948C353.95 108.749 353.198 108.561 352.47 108.384C351.767 108.205 351.192 107.972 350.746 107.684C350.299 107.396 350.061 106.966 350.031 106.392C350.001 105.819 350.217 105.365 350.678 105.029C351.162 104.669 351.87 104.464 352.801 104.415C353.685 104.369 354.482 104.495 355.192 104.793C355.926 105.09 356.548 105.536 357.058 106.132L359.027 103.945C358.309 103.049 357.413 102.402 356.339 102.003C355.287 101.579 354.092 101.402 352.755 101.472C351.489 101.539 350.413 101.799 349.527 102.252C348.665 102.704 348.003 103.326 347.541 104.116C347.079 104.883 346.874 105.78 346.928 106.806C346.982 107.833 347.24 108.646 347.702 109.244C348.189 109.841 348.787 110.301 349.499 110.623C350.21 110.945 350.954 111.205 351.731 111.404C352.53 111.578 353.282 111.766 353.987 111.968C354.691 112.147 355.267 112.404 355.716 112.74C356.187 113.05 356.439 113.516 356.472 114.137C356.504 114.758 356.255 115.262 355.725 115.649C355.193 116.012 354.426 116.22 353.423 116.272C352.42 116.325 351.503 116.193 350.672 115.877C349.84 115.538 349.094 115.002 348.433 114.271L346.464 116.457C347.023 117.074 347.673 117.603 348.415 118.043Z" fill="white"/>
<path d="M355.582 95.955L355.615 96.5898L354.851 96.6299L354.952 98.5613L354.227 98.5993L354.126 96.6679L353.361 96.708L353.328 96.0731L355.582 95.955Z" fill="white"/>
<path d="M358.559 95.7604L358.696 98.3767L357.97 98.4147L357.904 97.1451L357.403 97.7693L357.186 97.7806L356.623 97.2121L356.69 98.4818L355.965 98.5198L355.827 95.9036L356.083 95.8902L357.251 96.9478L358.302 95.7739L358.559 95.7604Z" fill="white"/>
<path d="M264.298 104.926C265.471 108.093 268.988 109.709 272.155 108.536C275.321 107.363 282.671 101.723 281.498 98.5563C280.325 95.39 271.075 95.897 267.908 97.0696C264.742 98.2422 263.126 101.76 264.298 104.926Z" fill="white"/>
<path d="M263.278 122.68C265.266 124.47 268.329 124.31 270.119 122.321C271.91 120.333 274.991 113.67 273.003 111.879C271.014 110.089 264.71 113.85 262.919 115.838C261.129 117.826 261.289 120.889 263.278 122.68Z" fill="white"/>
<path d="M281.454 123.589C284.757 124.291 288.003 122.183 288.705 118.88C289.407 115.577 288.57 106.351 285.267 105.649C281.965 104.947 277.447 113.035 276.745 116.338C276.043 119.641 278.151 122.887 281.454 123.589Z" fill="white"/>
<path d="M451.502 108.612C452.634 109.098 453.969 109.3 455.507 109.22C457.122 109.135 458.497 108.759 459.63 108.092C460.764 107.425 461.638 106.569 462.253 105.525C462.868 104.48 463.222 103.347 463.314 102.128L459.981 102.302C459.854 103.446 459.365 104.36 458.512 105.043C457.675 105.71 456.619 106.077 455.345 106.144C454.475 106.189 453.699 106.082 453.015 105.822C452.347 105.561 451.774 105.178 451.296 104.673C450.817 104.153 450.442 103.542 450.172 102.84C449.917 102.136 449.767 101.365 449.723 100.526C449.678 99.6564 449.745 98.8584 449.925 98.1323C450.121 97.4055 450.422 96.7666 450.829 96.2156C451.237 95.6646 451.759 95.2321 452.397 94.9183C453.034 94.5889 453.772 94.4023 454.611 94.3583C455.434 94.3151 456.18 94.4163 456.847 94.6617C457.513 94.8916 458.07 95.2675 458.518 95.7892C458.981 96.2947 459.295 96.9325 459.46 97.7028L462.792 97.5281C462.582 96.1994 462.109 95.0558 461.374 94.0973C460.637 93.1234 459.68 92.3946 458.502 91.9111C457.339 91.4113 455.988 91.2017 454.45 91.2823C452.974 91.3596 451.706 91.6831 450.645 92.2528C449.599 92.8061 448.749 93.5205 448.093 94.3961C447.438 95.2716 446.967 96.2311 446.679 97.2743C446.406 98.3168 446.298 99.3662 446.353 100.423L446.38 100.935C446.43 101.883 446.644 102.861 447.024 103.869C447.404 104.877 447.959 105.799 448.688 106.633C449.433 107.466 450.371 108.126 451.502 108.612Z" fill="white"/>
<path fill-rule="evenodd" clip-rule="evenodd" d="M472.201 106.359C472.346 106.079 472.463 105.772 472.55 105.439L472.677 107.876L475.241 107.742L474.829 99.8883C474.767 98.7076 474.492 97.764 474.003 97.0574C473.53 96.35 472.849 95.8482 471.961 95.5521C471.089 95.2551 470 95.1408 468.695 95.2091C468.276 95.2311 467.826 95.2625 467.345 95.3033C466.879 95.3277 466.421 95.3673 465.972 95.4219C465.524 95.4766 465.121 95.5289 464.766 95.5787L464.91 98.3285C465.343 98.2746 465.831 98.2256 466.374 98.1816C466.932 98.1212 467.482 98.069 468.025 98.025C468.568 97.981 469.034 97.9488 469.422 97.9284C470.168 97.8893 470.729 98.0391 471.105 98.3777C471.481 98.7163 471.688 99.2506 471.726 99.9808L471.732 100.097L469.146 100.233C468.027 100.292 467.056 100.49 466.233 100.83C465.425 101.168 464.803 101.644 464.368 102.259C463.948 102.873 463.763 103.646 463.812 104.578C463.857 105.433 464.081 106.153 464.486 106.74C464.906 107.325 465.466 107.763 466.167 108.053C466.883 108.343 467.7 108.464 468.616 108.416C469.502 108.369 470.239 108.175 470.829 107.833C471.433 107.474 471.891 106.982 472.201 106.359ZM471.539 104.874C471.782 104.457 471.901 103.905 471.896 103.22L471.834 102.032L469.2 102.17C468.455 102.209 467.89 102.425 467.505 102.819C467.135 103.197 466.966 103.673 466.996 104.248C467.026 104.823 467.245 105.279 467.652 105.616C468.074 105.952 468.659 106.1 469.404 106.061C469.855 106.038 470.262 105.938 470.627 105.763C471.007 105.572 471.31 105.276 471.539 104.874Z" fill="white"/>
<path d="M483.184 107.769C482.081 107.827 481.116 107.691 480.289 107.36C479.477 107.029 478.783 106.567 478.207 105.974C477.646 105.38 477.213 104.702 476.908 103.939C476.603 103.176 476.43 102.39 476.387 101.583L476.364 101.14C476.319 100.285 476.409 99.4628 476.632 98.6722C476.87 97.8652 477.245 97.1445 477.757 96.5101C478.269 95.8602 478.911 95.3358 479.684 94.937C480.473 94.5218 481.395 94.2865 482.452 94.2312C483.555 94.1734 484.553 94.3392 485.445 94.7286C486.337 95.1024 487.06 95.6565 487.612 96.3909C488.18 97.1245 488.522 97.9945 488.637 99.0011L485.491 99.166C485.379 98.5175 485.071 97.9884 484.566 97.5787C484.078 97.1681 483.422 96.9844 482.598 97.0276C481.883 97.065 481.294 97.2673 480.831 97.6343C480.382 98.0005 480.058 98.4926 479.856 99.1107C479.654 99.7133 479.574 100.403 479.614 101.18C479.653 101.925 479.798 102.596 480.047 103.19C480.312 103.784 480.686 104.239 481.17 104.557C481.67 104.873 482.292 105.012 483.038 104.973C483.597 104.943 484.073 104.817 484.467 104.594C484.86 104.371 485.164 104.075 485.378 103.705C485.608 103.335 485.742 102.923 485.781 102.469L488.927 102.304C488.918 103.333 488.663 104.25 488.16 105.055C487.671 105.844 486.996 106.479 486.133 106.96C485.286 107.441 484.303 107.711 483.184 107.769Z" fill="white"/>
<path d="M493.198 106.52C493.975 106.775 494.946 106.872 496.111 106.811L497.929 106.716L497.784 103.943L495.803 104.047C495.181 104.079 494.691 103.941 494.332 103.633C493.988 103.308 493.8 102.835 493.767 102.214L493.478 96.4807L497.382 96.2762L497.257 93.8992L493.359 94.1035L493.179 90.5378L490.149 90.6965L490.329 94.2623L488.309 94.3682L488.433 96.7451L490.449 96.6395L490.727 102.163C490.791 103.39 491.029 104.359 491.44 105.07C491.85 105.765 492.437 106.248 493.198 106.52Z" fill="white"/>
<path d="M503.806 106.642C502.345 106.718 501.186 106.296 500.328 105.375C499.485 104.454 499.014 103.045 498.915 101.15L498.53 93.8092L501.769 93.6394L502.168 101.26C502.209 102.036 502.459 102.646 502.919 103.09C503.377 103.517 503.979 103.712 504.725 103.673C505.471 103.634 506.064 103.361 506.505 102.855C506.961 102.348 507.168 101.683 507.125 100.86L506.733 93.3793L509.972 93.2095L510.636 105.887L508.073 106.021L507.918 103.074C507.867 103.346 507.803 103.602 507.725 103.843C507.444 104.714 506.988 105.384 506.358 105.854C505.729 106.323 504.924 106.583 503.946 106.634L503.806 106.642Z" fill="white"/>
<path d="M513.645 105.028C514.677 105.706 516.063 105.999 517.803 105.908C518.922 105.85 519.884 105.628 520.689 105.243C521.495 104.858 522.107 104.351 522.526 103.721C522.959 103.075 523.154 102.333 523.11 101.494C523.051 100.36 522.576 99.4812 521.687 98.858C520.813 98.2339 519.626 97.8833 518.127 97.8061L517.002 97.7482C516.314 97.7064 515.809 97.5848 515.487 97.3836C515.181 97.1816 515.017 96.8786 514.996 96.4747C514.974 96.0552 515.142 95.7037 515.501 95.42C515.86 95.1364 516.382 94.9766 517.065 94.9408C517.826 94.9009 518.417 95.0258 518.837 95.3153C519.257 95.6048 519.494 95.9663 519.548 96.3997L522.461 96.247C522.345 94.9289 521.788 93.9533 520.789 93.3203C519.79 92.6872 518.514 92.4113 516.96 92.4928C515.966 92.5449 515.088 92.7466 514.328 93.098C513.582 93.4331 513.007 93.9072 512.603 94.5204C512.199 95.1335 512.02 95.8751 512.066 96.7451C512.123 97.8326 512.549 98.6826 513.344 99.2952C514.14 99.9078 515.248 100.255 516.67 100.336L517.795 100.394C518.638 100.428 519.237 100.56 519.592 100.79C519.962 101.02 520.158 101.345 520.18 101.764C520.205 102.246 519.992 102.639 519.541 102.943C519.105 103.246 518.499 103.418 517.722 103.459C516.79 103.508 516.097 103.365 515.643 103.03C515.189 102.696 514.928 102.312 514.858 101.88L511.945 102.032C512.06 103.335 512.627 104.333 513.645 105.028Z" fill="white"/>
<path fill-rule="evenodd" clip-rule="evenodd" d="M427.292 88.1179C419.57 88.5225 413.639 95.11 414.044 102.831C414.448 110.553 421.036 116.484 428.757 116.08C436.479 115.675 442.41 109.087 442.005 101.366C441.601 93.6446 435.013 87.7132 427.292 88.1179ZM417.179 102.667C416.865 96.6771 421.466 91.5668 427.456 91.2528C433.446 90.9389 438.556 95.5403 438.87 101.53C439.157 106.997 435.349 111.731 430.129 112.755L430.003 110.363L432.733 109.189C434.311 108.511 435.299 106.921 435.209 105.207L434.962 100.496C434.917 99.6303 434.179 98.9653 433.313 99.0107C432.447 99.056 431.782 99.7946 431.827 100.66L432.074 105.371C432.095 105.773 431.864 106.146 431.494 106.305L429.828 107.021L429.178 94.6135C429.133 93.7478 428.394 93.0828 427.528 93.1282C426.663 93.1735 425.998 93.9121 426.043 94.7778L426.396 101.503L424.716 100.982C424.332 100.862 424.062 100.515 424.041 100.113L423.935 98.0826C423.889 97.2169 423.151 96.5519 422.285 96.5972C421.419 96.6426 420.754 97.3812 420.8 98.2469L420.906 100.277C420.996 101.992 422.145 103.47 423.785 103.979L426.571 104.845L426.994 112.912C421.718 112.416 417.464 108.116 417.179 102.667Z" fill="white"/>
<path d="M630.97 81.6302C631.422 82.0574 632.087 82.248 632.965 82.202C633.842 82.156 634.473 81.8975 634.856 81.4266C635.238 80.9342 635.411 80.3454 635.376 79.6602C635.337 78.9322 635.103 78.354 634.673 77.9257C634.242 77.4974 633.588 77.3062 632.71 77.3522C631.832 77.3982 631.191 77.6573 630.787 78.1294C630.403 78.6004 630.231 79.1998 630.269 79.9278C630.305 80.613 630.538 81.1805 630.97 81.6302Z" fill="white"/>
<path d="M610.726 85.4609L617.1 102.615L624.262 102.239L628.07 84.5519L623.766 84.7775L620.935 98.7422L620.177 98.7819L615.319 85.2202L610.726 85.4609Z" fill="white"/>
<path d="M646.709 101.61C644.311 101.736 642.401 101.332 640.977 100.397C639.575 99.4401 638.794 98.0639 638.636 96.2687L642.65 96.0583C642.746 96.6545 643.106 97.1831 643.732 97.6441C644.357 98.1052 645.312 98.302 646.597 98.2347C647.667 98.1786 648.503 97.9416 649.104 97.5236C649.726 97.1045 650.02 96.5631 649.985 95.8993C649.955 95.3212 649.684 94.8738 649.174 94.557C648.685 94.2391 647.859 94.0569 646.697 94.0104L645.147 93.9306C643.188 93.8186 641.66 93.3405 640.563 92.4962C639.467 91.6519 638.88 90.4803 638.801 88.9815C638.738 87.7824 638.985 86.7603 639.542 85.9153C640.099 85.0702 640.891 84.4167 641.919 83.9549C642.967 83.4706 644.177 83.1925 645.547 83.1207C647.688 83.0085 649.447 83.3886 650.824 84.2612C652.201 85.1337 652.969 86.4783 653.129 88.295L649.114 88.5054C649.04 87.9081 648.713 87.4099 648.134 87.0109C647.555 86.6118 646.741 86.4398 645.692 86.4947C644.75 86.5441 644.031 86.7643 643.536 87.1552C643.041 87.5461 642.809 88.0307 642.84 88.6088C642.869 89.1655 643.095 89.5831 643.517 89.8615C643.961 90.1388 644.657 90.3063 645.605 90.364L647.155 90.4438C649.221 90.5502 650.857 91.0335 652.062 91.8936C653.287 92.7526 653.941 93.9636 654.023 95.5267C654.084 96.6829 653.815 97.7061 653.218 98.5962C652.641 99.4638 651.797 100.163 650.687 100.693C649.577 101.224 648.251 101.53 646.709 101.61Z" fill="white"/>
<path d="M655.83 80.3274C656.282 80.7546 656.947 80.9452 657.824 80.8992C658.702 80.8532 659.333 80.5947 659.716 80.1237C660.098 79.6313 660.271 79.0425 660.235 78.3574C660.197 77.6294 659.963 77.0512 659.533 76.6229C659.102 76.1945 658.448 76.0034 657.57 76.0494C656.692 76.0954 656.051 76.3544 655.646 76.8265C655.263 77.2975 655.091 77.897 655.129 78.625C655.165 79.3102 655.398 79.8776 655.83 80.3274Z" fill="white"/>
<path fill-rule="evenodd" clip-rule="evenodd" d="M673.628 100.264C672.086 100.345 670.714 100.17 669.51 99.7391C668.307 99.3084 667.277 98.6968 666.419 97.9044C665.561 97.0906 664.889 96.1596 664.405 95.1114C663.942 94.0621 663.68 92.9594 663.62 91.8031L663.584 91.1287C663.521 89.9296 663.676 88.7836 664.048 87.6905C664.441 86.575 665.022 85.5783 665.792 84.7006C666.582 83.8004 667.553 83.0839 668.706 82.5511C669.858 81.9969 671.173 81.6811 672.65 81.6037C674.128 81.5262 675.468 81.7029 676.672 82.1336C677.874 82.543 678.904 83.1546 679.763 83.9684C680.642 84.7597 681.324 85.6901 681.809 86.7597C682.294 87.8078 682.567 88.9315 682.63 90.1305L682.665 90.805C682.726 91.9612 682.57 93.0859 682.198 94.1789C681.847 95.2708 681.288 96.2663 680.519 97.1655C679.749 98.0432 678.788 98.7591 677.636 99.3133C676.484 99.8675 675.148 100.184 673.628 100.264ZM673.428 96.4421C674.52 96.3848 675.428 96.1011 676.153 95.5907C676.877 95.059 677.41 94.3762 677.753 93.5423C678.094 92.6871 678.237 91.7348 678.183 90.6857C678.126 89.6151 677.874 88.6836 677.424 87.8913C676.995 87.0764 676.383 86.4537 675.587 86.023C674.812 85.5698 673.9 85.3707 672.85 85.4257C671.801 85.4807 670.904 85.7746 670.159 86.3075C669.434 86.8178 668.891 87.5012 668.528 88.3575C668.163 89.1925 668.009 90.1453 668.065 91.2159C668.12 92.2651 668.362 93.1971 668.792 94.0119C669.241 94.8043 669.853 95.427 670.629 95.8802C671.403 96.312 672.336 96.4993 673.428 96.4421Z" fill="white"/>
<path d="M688.571 84.4408C688.437 84.8325 688.33 85.2547 688.25 85.7075L688.025 81.4098L684.492 81.595L685.406 99.0349L689.871 98.8009L689.334 88.5554C689.274 87.4205 689.559 86.5039 690.188 85.8053C690.837 85.0842 691.708 84.6951 692.8 84.6378C693.87 84.5817 694.723 84.8698 695.357 85.5022C696.013 86.1334 696.369 86.9843 696.425 88.0549L696.969 98.429L701.433 98.195L700.91 88.2064C700.77 85.5513 700.131 83.588 698.991 82.3166C697.849 81.0238 696.24 80.4318 694.163 80.5406L693.97 80.5507C692.579 80.6237 691.427 80.9846 690.517 81.6335C689.627 82.2813 688.979 83.217 688.571 84.4408Z" fill="white"/>
<path d="M631.611 87.7158L632.35 101.815L636.814 101.582L635.9 84.1416L628.995 84.5034L629.17 87.8437L631.611 87.7158Z" fill="white"/>
<path d="M656.471 86.4129L657.21 100.513L661.674 100.279L660.76 82.8387L653.855 83.2006L654.03 86.5408L656.471 86.4129Z" fill="white"/>
<mask id="path-14-inside-1_501_794" fill="white">
<path fill-rule="evenodd" clip-rule="evenodd" d="M592.52 107.497C600.241 107.092 606.172 100.505 605.768 92.7835C605.363 85.0621 598.776 79.1307 591.054 79.5354C583.333 79.94 577.402 86.5275 577.806 94.2489C578.211 101.97 584.798 107.902 592.52 107.497ZM602 91.5258C600.776 93.1186 598.99 94.1642 596.955 94.2708C593.001 94.4781 589.607 91.0584 589.375 86.6327C589.316 85.5193 589.464 84.4482 589.78 83.4655C584.863 84.4779 581.29 88.9559 581.561 94.1218C581.64 95.6291 582.038 97.044 582.687 98.3042C583.248 97.725 584.058 97.3404 584.975 97.2923C586.765 97.1985 588.283 98.4202 588.367 100.021C588.423 101.096 587.818 102.068 586.873 102.62C588.509 103.527 590.411 104.001 592.417 103.896C598.113 103.598 602.49 98.7375 602.191 93.0407C602.164 92.524 602.099 92.0182 602 91.5258Z"/>
</mask>
<path fill-rule="evenodd" clip-rule="evenodd" d="M592.52 107.497C600.241 107.092 606.172 100.505 605.768 92.7835C605.363 85.0621 598.776 79.1307 591.054 79.5354C583.333 79.94 577.402 86.5275 577.806 94.2489C578.211 101.97 584.798 107.902 592.52 107.497ZM602 91.5258C600.776 93.1186 598.99 94.1642 596.955 94.2708C593.001 94.4781 589.607 91.0584 589.375 86.6327C589.316 85.5193 589.464 84.4482 589.78 83.4655C584.863 84.4779 581.29 88.9559 581.561 94.1218C581.64 95.6291 582.038 97.044 582.687 98.3042C583.248 97.725 584.058 97.3404 584.975 97.2923C586.765 97.1985 588.283 98.4202 588.367 100.021C588.423 101.096 587.818 102.068 586.873 102.62C588.509 103.527 590.411 104.001 592.417 103.896C598.113 103.598 602.49 98.7375 602.191 93.0407C602.164 92.524 602.099 92.0182 602 91.5258Z" fill="white"/>
<path d="M602 91.5258L604.621 90.9972L603.459 85.2385L599.88 89.897L602 91.5258ZM589.78 83.4655L592.325 84.2844L593.728 79.9227L589.241 80.8469L589.78 83.4655ZM582.687 98.3042L580.31 99.5277L582.016 102.842L584.608 100.164L582.687 98.3042ZM586.873 102.62L585.526 100.31L581.467 102.678L585.576 104.958L586.873 102.62ZM603.098 92.9234C603.425 99.1703 598.627 104.5 592.38 104.827L592.66 110.167C601.856 109.685 608.92 101.839 608.438 92.6436L603.098 92.9234ZM591.194 82.2052C597.441 81.8779 602.771 86.6765 603.098 92.9234L608.438 92.6436C607.956 83.4476 600.11 76.3835 590.914 76.8655L591.194 82.2052ZM580.476 94.109C580.149 87.8621 584.947 82.5326 591.194 82.2052L590.914 76.8655C581.718 77.3474 574.654 85.1929 575.136 94.3888L580.476 94.109ZM592.38 104.827C586.133 105.154 580.803 100.356 580.476 94.109L575.136 94.3888C575.618 103.585 583.464 110.649 592.66 110.167L592.38 104.827ZM597.095 96.9407C599.997 96.7887 602.476 95.2952 604.12 93.1547L599.88 89.897C599.077 90.9419 597.983 91.5397 596.816 91.6009L597.095 96.9407ZM586.705 86.7726C586.999 92.3825 591.392 97.2396 597.095 96.9407L596.816 91.6009C594.61 91.7165 592.214 89.7342 592.044 86.4928L586.705 86.7726ZM587.235 82.6465C586.819 83.9381 586.629 85.334 586.705 86.7726L592.044 86.4928C592.003 85.7045 592.108 84.9584 592.325 84.2844L587.235 82.6465ZM584.231 93.9819C584.03 90.1555 586.678 86.8339 590.319 86.0841L589.241 80.8469C583.049 82.1218 578.55 87.7563 578.891 94.2618L584.231 93.9819ZM585.064 97.0807C584.585 96.1502 584.29 95.104 584.231 93.9819L578.891 94.2618C578.99 96.1543 579.491 97.9377 580.31 99.5277L585.064 97.0807ZM584.835 94.6224C583.257 94.7051 581.806 95.3701 580.766 96.4448L584.608 100.164C584.689 100.08 584.859 99.9756 585.115 99.9622L584.835 94.6224ZM591.037 99.881C590.861 96.5342 587.812 94.4664 584.835 94.6224L585.115 99.9622C585.365 99.9491 585.543 100.03 585.635 100.104C585.721 100.174 585.699 100.201 585.697 100.161L591.037 99.881ZM588.22 104.929C589.896 103.951 591.153 102.101 591.037 99.881L585.697 100.161C585.697 100.157 585.697 100.151 585.698 100.147C585.699 100.143 585.698 100.149 585.69 100.162C585.673 100.191 585.625 100.252 585.526 100.31L588.22 104.929ZM592.277 101.226C590.786 101.305 589.38 100.953 588.17 100.282L585.576 104.958C587.638 106.101 590.036 106.698 592.557 106.566L592.277 101.226ZM599.521 93.1806C599.743 97.4029 596.499 101.005 592.277 101.226L592.557 106.566C599.728 106.19 605.237 100.072 604.861 92.9007L599.521 93.1806ZM599.379 92.0545C599.453 92.4191 599.501 92.795 599.521 93.1806L604.861 92.9007C604.827 92.2531 604.746 91.6174 604.621 90.9972L599.379 92.0545Z" fill="white" mask="url(#path-14-inside-1_501_794)"/>
<path d="M805.621 93.3398C803.407 93.4558 801.428 93.1235 799.682 92.3428C797.935 91.5424 796.555 90.3561 795.541 88.7838C794.527 87.2116 793.962 85.3284 793.847 83.1342C793.733 80.94 794.097 79.0081 794.941 77.3385C795.784 75.6491 797.033 74.325 798.687 73.3662C800.341 72.3876 802.274 71.8402 804.488 71.7242C805.991 71.6455 807.323 71.7342 808.486 71.9904C809.668 72.2258 810.761 72.6442 811.763 73.2458L811.989 77.5452C811.082 76.8792 810.056 76.4175 808.913 76.1603C807.789 75.8823 806.515 75.7805 805.091 75.8551C803.767 75.9245 802.586 76.264 801.547 76.8734C800.527 77.462 799.738 78.2765 799.178 79.3167C798.618 80.357 798.373 81.5492 798.443 82.8933C798.515 84.2573 798.854 85.4387 799.462 86.4376C800.088 87.4157 800.929 88.1546 801.986 88.6542C803.043 89.1538 804.244 89.3684 805.588 89.2979C806.813 89.2337 807.869 88.9603 808.756 88.4778L808.546 84.4749L805.196 84.6505L805.022 81.3296L812.731 80.9255L813.254 90.9179C811.368 92.3647 808.824 93.172 805.621 93.3398Z" fill="white"/>
<path d="M813.632 78.2024L817.961 77.9755L818.068 80.0215C818.605 79.2996 819.378 78.7338 820.387 78.3241C821.396 77.8946 822.552 77.6457 823.857 77.5773L824.035 80.9872C822.671 81.0587 821.476 81.3294 820.451 81.7995C819.444 82.2685 818.766 82.9383 818.415 83.809L818.855 92.2003L814.378 92.4349L813.632 78.2024Z" fill="white"/>
<path d="M833.235 91.8926C830.507 92.0356 828.328 91.4957 826.698 90.2729C825.067 89.0303 824.189 87.223 824.065 84.8509C823.942 82.4986 824.536 80.6042 825.848 79.1677C827.18 77.7302 829.141 76.9436 831.731 76.8079C833.431 76.7188 834.89 76.9595 836.109 77.5299C837.328 78.1003 838.274 78.9328 838.946 80.0274C839.617 81.1023 839.989 82.3414 840.062 83.7449L840.157 85.5536L828.415 86.169C828.827 87.971 830.575 88.7912 833.658 88.6296C834.568 88.5819 835.502 88.4537 836.463 88.2448C837.423 88.0359 838.252 87.7744 838.949 87.4604L839.114 90.6034C838.437 90.9361 837.56 91.22 836.482 91.4548C835.404 91.6897 834.322 91.8357 833.235 91.8926ZM835.765 82.87C835.656 81.9243 835.262 81.2116 834.582 80.7318C833.902 80.2323 832.989 80.0125 831.842 80.0726C830.715 80.1317 829.84 80.4452 829.216 81.0131C828.591 81.581 828.274 82.331 828.263 83.2632L835.765 82.87Z" fill="white"/>
<path d="M849.647 91.0325C846.919 91.1755 844.74 90.6355 843.11 89.4127C841.479 88.1702 840.601 86.3628 840.477 83.9908C840.354 81.6384 840.948 79.7441 842.261 78.3076C843.593 76.8701 845.553 76.0835 848.143 75.9478C849.843 75.8587 851.302 76.0993 852.522 76.6697C853.741 77.2401 854.686 78.0726 855.358 79.1673C856.029 80.2421 856.401 81.4813 856.475 82.8848L856.569 84.6935L844.828 85.3088C845.239 87.1109 846.987 87.9311 850.071 87.7695C850.98 87.7218 851.915 87.5935 852.875 87.3846C853.835 87.1757 854.664 86.9143 855.361 86.6002L855.526 89.7432C854.85 90.076 853.972 90.3598 852.895 90.5947C851.817 90.8296 850.734 90.9755 849.647 91.0325ZM852.177 82.0099C852.068 81.0642 851.674 80.3514 850.995 79.8717C850.314 79.3721 849.401 79.1524 848.254 79.2125C847.128 79.2715 846.252 79.585 845.628 80.1529C845.003 80.7208 844.686 81.4709 844.675 82.403L852.177 82.0099Z" fill="white"/>
<path d="M857.106 75.924L861.435 75.6971L861.527 77.4465C862.141 76.681 862.884 76.097 863.754 75.6945C864.644 75.2713 865.583 75.0338 866.571 74.982C868.509 74.8804 869.979 75.3287 870.983 76.3266C872.005 77.3037 872.563 78.672 872.655 80.4313L873.123 89.3562L868.645 89.5909L868.204 81.17C868.108 79.3316 867.209 78.457 865.509 78.5461C864.758 78.5854 864.066 78.81 863.434 79.2198C862.8 79.6098 862.275 80.1725 861.857 80.9079L862.33 89.9218L857.852 90.1565L857.106 75.924Z" fill="white"/>
<path d="M876.212 72.7225C875.52 72.7588 874.925 72.562 874.427 72.1322C873.929 71.7024 873.662 71.1416 873.625 70.4497C873.59 69.7777 873.798 69.2019 874.248 68.7223C874.698 68.2231 875.269 67.9553 875.96 67.919C876.652 67.8828 877.248 68.0894 877.747 68.539C878.245 68.9688 878.512 69.5197 878.547 70.1918C878.584 70.8837 878.376 71.4693 877.926 71.9488C877.475 72.4284 876.904 72.6862 876.212 72.7225ZM874.074 75.0348L878.581 74.7986L879.327 89.0311L874.82 89.2673L874.074 75.0348Z" fill="white"/>
<path d="M886.986 89.0756C885.918 89.1316 884.766 89.0731 883.528 88.9001C882.311 88.7458 881.345 88.4793 880.632 88.1004L880.448 84.6016C881.264 85.0346 882.233 85.3703 883.355 85.6088C884.478 85.8473 885.513 85.9417 886.462 85.892C887.273 85.8495 887.862 85.7492 888.23 85.5912C888.599 85.4331 888.773 85.1663 888.753 84.7907C888.738 84.4942 888.617 84.2627 888.39 84.0962C888.162 83.9099 887.817 83.7595 887.355 83.645C886.912 83.5096 886.169 83.3206 885.126 83.078C883.901 82.7854 882.934 82.4793 882.223 82.1597C881.531 81.8194 880.993 81.3818 880.608 80.8469C880.243 80.3111 880.038 79.6082 879.992 78.7385C879.915 77.2559 880.44 76.1184 881.568 75.3259C882.714 74.5126 884.296 74.0531 886.312 73.9474C887.3 73.8956 888.324 73.951 889.383 74.1135C890.461 74.2552 891.295 74.4791 891.886 74.7851L892.065 78.195C891.472 77.8494 890.705 77.5824 889.763 77.3939C888.841 77.2043 887.946 77.1324 887.076 77.1779C886.266 77.2204 885.637 77.3326 885.191 77.5146C884.764 77.6955 884.562 78.0034 884.585 78.4383C884.605 78.8139 884.827 79.0897 885.253 79.2656C885.698 79.4404 886.512 79.6456 887.693 79.881L888.294 79.9981C889.557 80.2689 890.545 80.5937 891.259 80.9726C891.972 81.3317 892.481 81.7906 892.788 82.3494C893.114 82.8873 893.299 83.5813 893.343 84.4313C893.412 85.7359 892.903 86.8131 891.818 87.6629C890.731 88.4928 889.121 88.9638 886.986 89.0756Z" fill="white"/>
<path d="M893.432 66.3196L897.909 66.0849L898.397 75.3953C899.033 74.6683 899.767 74.1144 900.599 73.7338C901.431 73.3335 902.331 73.1079 903.299 73.0571C905.236 72.9556 906.707 73.4038 907.711 74.4018C908.733 75.3789 909.29 76.7471 909.383 78.5064L909.85 87.4314L905.373 87.666L904.932 79.2451C904.835 77.4068 903.937 76.5321 902.237 76.6212C901.486 76.6606 900.794 76.8852 900.162 77.2949C899.528 77.6849 899.002 78.2477 898.585 78.9831L899.057 87.997L894.58 88.2317L893.432 66.3196Z" fill="white"/>
<path fill-rule="evenodd" clip-rule="evenodd" d="M778.169 76.5672C778.367 80.3335 775.473 83.5467 771.707 83.7441C767.941 83.9415 764.728 81.0483 764.53 77.282C764.333 73.5156 767.226 70.3024 770.992 70.105C774.759 69.9077 777.972 72.8009 778.169 76.5672ZM755.819 84.079C763.222 83.1888 769.989 88.4121 770.982 95.8259C771.085 96.5941 771.122 97.356 771.097 98.1058C763.694 98.996 756.927 93.7727 755.934 86.3589C755.831 85.5907 755.794 84.8288 755.819 84.079ZM775.891 97.5934C783.305 96.6001 788.528 89.8334 787.638 82.43C786.889 82.4052 786.127 82.4422 785.358 82.5451C777.945 83.5384 772.721 90.3051 773.612 97.7086C774.361 97.7333 775.123 97.6963 775.891 97.5934Z" fill="white"/>
<path d="M1025.14 82.999C1023.06 83.1081 1021.25 82.8339 1019.72 82.1765C1018.19 81.519 1016.92 80.6266 1015.91 79.4991C1014.93 78.3706 1014.18 77.1242 1013.66 75.7601C1013.15 74.3961 1012.86 73.073 1012.79 71.7908L1012.75 71.0972C1012.68 69.668 1012.83 68.2482 1013.19 66.8378C1013.58 65.4264 1014.22 64.1284 1015.11 62.9438C1015.99 61.7592 1017.15 60.7926 1018.56 60.0441C1020 59.2733 1021.71 58.8357 1023.71 58.731C1025.79 58.622 1027.62 58.9056 1029.19 59.5818C1030.78 60.2359 1032.08 61.2219 1033.08 62.5396C1034.07 63.8363 1034.71 65.3835 1034.99 67.1812L1030.49 67.4175C1030.26 66.3754 1029.84 65.5124 1029.21 64.8286C1028.61 64.1227 1027.85 63.6142 1026.95 63.3032C1026.05 62.9711 1025.04 62.8343 1023.93 62.8927C1022.79 62.9521 1021.79 63.2047 1020.93 63.6503C1020.07 64.0749 1019.36 64.6599 1018.81 65.4054C1018.26 66.1509 1017.85 67.0153 1017.59 67.9987C1017.34 68.9809 1017.25 70.0606 1017.31 71.2376C1017.37 72.3726 1017.58 73.4158 1017.92 74.3673C1018.29 75.3176 1018.79 76.1446 1019.44 76.8483C1020.09 77.531 1020.86 78.0489 1021.77 78.402C1022.69 78.7539 1023.74 78.8991 1024.92 78.8374C1026.64 78.7471 1028.07 78.2507 1029.2 77.3483C1030.36 76.4237 1031.02 75.1877 1031.19 73.6401L1035.7 73.4038C1035.58 75.0543 1035.1 76.5863 1034.27 77.9999C1033.43 79.4134 1032.25 80.5714 1030.72 81.4737C1029.18 82.376 1027.32 82.8845 1025.14 82.999Z" fill="white"/>
<path d="M1038.22 81.713L1037.01 58.6978L1041.39 58.4681L1042.6 81.4833L1038.22 81.713ZM1035.04 62.089L1034.87 58.8101L1041.39 58.4681L1041.56 61.747L1035.04 62.089Z" fill="white"/>
<path d="M1054.29 81.4715C1052.77 81.5508 1051.43 81.379 1050.24 80.9562C1049.06 80.5333 1048.05 79.933 1047.21 79.1551C1046.37 78.3563 1045.71 77.4424 1045.23 76.4135C1044.78 75.3835 1044.52 74.301 1044.46 73.166L1044.43 72.5039C1044.36 71.3269 1044.52 70.2019 1044.88 69.1289C1045.27 68.0339 1045.84 67.0555 1046.59 66.194C1047.37 65.3103 1048.32 64.6069 1049.45 64.0839C1050.59 63.5399 1051.88 63.2299 1053.33 63.1539C1054.78 63.0779 1056.09 63.2513 1057.27 63.6742C1058.45 64.076 1059.47 64.6763 1060.31 65.4752C1061.17 66.252 1061.84 67.1653 1062.32 68.2152C1062.79 69.2441 1063.06 70.3471 1063.12 71.5241L1063.16 72.1862C1063.22 73.3212 1063.06 74.4251 1062.7 75.4981C1062.35 76.57 1061.8 77.5472 1061.05 78.4298C1060.29 79.2913 1059.35 79.9941 1058.22 80.5382C1057.09 81.0822 1055.78 81.3933 1054.29 81.4715ZM1054.09 77.7197C1055.16 77.6635 1056.05 77.3849 1056.76 76.884C1057.47 76.362 1058 75.6917 1058.33 74.8732C1058.67 74.0337 1058.81 73.0989 1058.76 72.069C1058.7 71.0181 1058.45 70.1038 1058.01 69.326C1057.59 68.5261 1056.99 67.9148 1056.21 67.492C1055.45 67.0472 1054.55 66.8517 1053.52 66.9057C1052.49 66.9597 1051.61 67.2482 1050.88 67.7713C1050.17 68.2722 1049.64 68.943 1049.28 69.7837C1048.92 70.6033 1048.77 71.5386 1048.83 72.5895C1048.88 73.6194 1049.12 74.5343 1049.54 75.3342C1049.98 76.112 1050.58 76.7233 1051.34 77.1682C1052.1 77.592 1053.02 77.7759 1054.09 77.7197Z" fill="white"/>
<path d="M1071.71 80.4952C1069.73 80.5987 1068.16 80.0276 1067 78.7817C1065.86 77.5347 1065.23 75.6291 1065.09 73.0649L1064.57 63.1337L1068.95 62.904L1069.49 73.2135C1069.55 74.2645 1069.89 75.0898 1070.51 75.6895C1071.13 76.2682 1071.94 76.5311 1072.95 76.4782C1073.96 76.4253 1074.76 76.0566 1075.36 75.372C1075.98 74.6863 1076.26 73.7864 1076.2 72.6724L1075.67 62.5521L1080.05 62.3224L1080.95 79.4734L1077.48 79.6552L1077.1 72.3723L1077.45 72.3541C1077.54 74.0776 1077.39 75.529 1077.01 76.7081C1076.63 77.8873 1076.01 78.7942 1075.16 79.429C1074.31 80.0638 1073.22 80.4159 1071.9 80.4853L1071.71 80.4952Z" fill="white"/>
<path d="M1091.53 79.488C1090.33 79.5507 1089.22 79.3879 1088.19 78.9994C1087.15 78.6109 1086.25 78.0365 1085.47 77.2764C1084.69 76.5162 1084.08 75.6212 1083.62 74.5912C1083.17 73.5402 1082.91 72.3946 1082.84 71.1545L1082.81 70.4924C1082.74 69.2734 1082.87 68.1179 1083.2 67.0262C1083.54 65.9333 1084.04 64.9693 1084.69 64.1343C1085.36 63.2981 1086.18 62.6335 1087.14 62.1403C1088.13 61.6251 1089.23 61.3355 1090.45 61.2716C1091.79 61.2011 1092.99 61.4337 1094.03 61.9693C1095.09 62.4828 1095.95 63.3016 1096.62 64.4257C1097.29 65.5498 1097.7 66.9824 1097.86 68.7236L1096.49 67.278L1095.88 55.6128L1100.26 55.3831L1101.46 78.3983L1098 78.5801L1097.61 71.2972L1098.37 71.2575C1098.4 73.0054 1098.12 74.4849 1097.53 75.6961C1096.94 76.8862 1096.12 77.8037 1095.08 78.4483C1094.06 79.0709 1092.88 79.4175 1091.53 79.488ZM1092.31 75.748C1093.18 75.7028 1093.95 75.4724 1094.65 75.0566C1095.34 74.6198 1095.88 74.0225 1096.26 73.2649C1096.66 72.4851 1096.84 71.5907 1096.79 70.5818L1096.72 69.3207C1096.67 68.3118 1096.4 67.4827 1095.93 66.8332C1095.45 66.1627 1094.84 65.6676 1094.11 65.3477C1093.37 65.0068 1092.59 64.8584 1091.75 64.9025C1090.8 64.9521 1089.97 65.2273 1089.26 65.7283C1088.57 66.2071 1088.03 66.8674 1087.66 67.7092C1087.3 68.5498 1087.15 69.5166 1087.21 70.6096C1087.27 71.7025 1087.53 72.6479 1087.99 73.4455C1088.45 74.2222 1089.05 74.8125 1089.79 75.2164C1090.55 75.6193 1091.39 75.7965 1092.31 75.748Z" fill="white"/>
<path d="M996.994 86.2996C995.48 86.3789 994.511 85.7288 992.943 84.9854C991.376 84.242 986.794 81.1582 986.578 77.032C986.431 74.2329 985.591 72.0068 984.268 70.2669C982.954 68.5405 981.237 67.3867 979.472 66.6012C978.622 66.2227 977.742 65.9229 976.868 65.6827C976.359 65.5429 976.041 65.0208 976.233 64.5291C977.449 61.4107 980.403 59.1307 983.962 58.9441C988.808 58.6902 992.942 62.4125 993.196 67.2585C993.251 68.2952 993.123 69.2995 992.841 70.24C994.19 69.2242 995.847 68.5859 997.66 68.4908C1002.51 68.2369 1006.64 71.9592 1006.89 76.8052C1007.2 82.6389 1002.24 86.0248 996.994 86.2996Z" fill="white"/>
<path d="M964.447 78.2966C964.69 82.9216 967.941 86.6154 972.025 87.2552C972.66 87.4503 973.34 87.5393 974.042 87.5025L987.675 86.788C988.132 86.7641 988.299 86.1422 987.934 85.8651C985.446 83.9741 983.527 81.2259 983.316 77.203C983.2 74.9926 982.556 73.412 981.668 72.2448C980.77 71.0643 979.549 70.2108 978.144 69.5853C976.726 68.9543 975.203 68.5848 973.755 68.3422C973.415 68.3173 973.071 68.3132 972.723 68.3314C967.877 68.5854 964.172 73.047 964.447 78.2966Z" fill="white"/>
<path d="M1330.04 62.43C1330.27 64.0849 1329.79 65.825 1328.6 67.1689C1327.4 68.5128 1325.72 69.1797 1324.05 69.1424C1323.82 67.4875 1324.3 65.7474 1325.5 64.4035C1326.7 63.0596 1328.37 62.3926 1330.04 62.43Z" fill="white"/>
<path d="M1326.91 60.278C1325.34 62.1403 1323 63.3302 1320.37 63.3479C1317.75 63.3655 1315.39 62.2074 1313.8 60.3667C1315.37 58.5044 1317.71 57.3144 1320.33 57.2968C1322.96 57.2792 1325.32 58.4373 1326.91 60.278Z" fill="white"/>
<path d="M1312.55 55.3011C1312.68 51.126 1314.57 47.0312 1318.09 44.215C1321.6 41.3988 1326.01 40.4495 1330.11 41.2348C1329.98 45.4099 1328.1 49.5047 1324.58 52.3209C1321.07 55.1371 1316.66 56.0864 1312.55 55.3011Z" fill="white"/>
<path d="M1379.63 46.6733L1379.76 49.2046L1381.28 49.125L1381.97 62.359L1384.67 62.2175L1383.98 48.9835L1387.52 48.7978L1387.39 46.2664L1383.85 46.4522L1383.71 43.8619C1383.67 43.1193 1383.71 42.5196 1383.82 42.0624C1383.93 41.6053 1384.09 41.2809 1384.31 41.089C1384.55 40.8736 1384.83 40.757 1385.17 40.7393C1385.44 40.7252 1385.73 40.7667 1386.02 40.8638C1386.34 40.9373 1386.63 41.1594 1386.87 41.5302L1388.24 39.2248C1388.07 39.008 1387.83 38.806 1387.53 38.6189C1387.25 38.4305 1386.92 38.2788 1386.53 38.1638C1386.14 38.0489 1385.69 38.0044 1385.2 38.0303C1384.25 38.0799 1383.45 38.3248 1382.8 38.7652C1382.17 39.1819 1381.69 39.7935 1381.37 40.5999C1381.06 41.4063 1380.93 42.4283 1380.99 43.6658L1381.15 46.5937L1379.63 46.6733Z" fill="white"/>
<path d="M1336.96 43.7347L1338.05 64.6608L1350.2 64.024L1350.06 61.3238L1340.78 61.8102L1339.82 43.5843L1336.96 43.7347Z" fill="white"/>
<path fill-rule="evenodd" clip-rule="evenodd" d="M1357.42 63.9844C1359.08 63.8971 1360.5 63.4953 1361.69 62.7791C1362.89 62.0393 1363.86 60.9955 1364.6 59.648L1362.33 58.3792C1361.82 59.3537 1361.17 60.0985 1360.39 60.6134C1359.6 61.1059 1358.68 61.3798 1357.62 61.4353C1356.56 61.4907 1355.65 61.3128 1354.89 60.9017C1354.12 60.4906 1353.52 59.8676 1353.1 59.0326C1352.77 58.3981 1352.55 57.6537 1352.44 56.7996L1364.66 56.1592L1364.64 55.8554C1364.65 55.6743 1364.65 55.5049 1364.65 55.3474C1364.56 53.7048 1364.19 52.3026 1363.55 51.1407C1362.9 49.9788 1362.01 49.1117 1360.87 48.5394C1359.76 47.9436 1358.43 47.6857 1356.9 47.7659C1355.37 47.8461 1354.04 48.2543 1352.91 48.9906C1351.8 49.7258 1350.94 50.718 1350.36 51.9673C1349.79 53.2154 1349.55 54.6495 1349.63 56.2695C1349.72 57.8672 1350.1 59.2575 1350.77 60.4407C1351.46 61.6228 1352.38 62.5337 1353.52 63.1735C1354.68 63.7896 1355.98 64.0598 1357.42 63.9844ZM1352.81 52.9218C1352.62 53.3898 1352.49 53.9157 1352.42 54.4992L1361.62 54.017C1361.53 53.2803 1361.31 52.6376 1360.96 52.0887C1360.56 51.4325 1360.03 50.9303 1359.35 50.582C1358.68 50.2336 1357.91 50.0825 1357.03 50.1285C1355.99 50.1827 1355.12 50.4543 1354.4 50.9432C1353.7 51.4085 1353.17 52.068 1352.81 52.9218Z" fill="white"/>
<path fill-rule="evenodd" clip-rule="evenodd" d="M1375.61 54.157C1375.17 53.9009 1374.61 53.684 1373.95 53.5062C1373.19 53.2751 1372.25 53.189 1371.12 53.248C1369.21 53.3482 1367.74 53.8879 1366.71 54.8671C1365.7 55.8225 1365.23 57.0541 1365.31 58.5617C1365.37 59.6192 1365.66 60.5063 1366.19 61.2228C1366.73 61.9395 1367.41 62.479 1368.24 62.8416C1369.1 63.1805 1369.99 63.3252 1370.94 63.2757C1371.79 63.2309 1372.64 63.0286 1373.48 62.6688C1374.34 62.3077 1375.05 61.7856 1375.6 61.1025C1375.73 60.9449 1375.84 60.7792 1375.94 60.6055L1376.05 62.6693L1378.75 62.5278L1378.17 51.3897C1378.11 50.3772 1377.81 49.5357 1377.26 48.8653C1376.73 48.1937 1375.99 47.702 1375.05 47.3904C1374.13 47.0551 1373.06 46.9192 1371.84 46.9829C1370.4 47.0584 1369.18 47.337 1368.17 47.8187C1367.18 48.2993 1366.4 48.7687 1365.84 49.2268L1367.26 51.1492C1367.5 50.9563 1367.82 50.7248 1368.24 50.4549C1368.65 50.1849 1369.16 49.9441 1369.76 49.7322C1370.38 49.5192 1371.07 49.3927 1371.83 49.3526C1372.31 49.3278 1372.76 49.3492 1373.19 49.4168C1373.62 49.4844 1374 49.6112 1374.33 49.7972C1374.68 49.982 1374.95 50.2498 1375.15 50.6003C1375.35 50.9284 1375.46 51.3625 1375.49 51.9025L1375.61 54.157ZM1368.37 56.8109C1368.12 57.23 1368.01 57.7209 1368.04 58.2834C1368.07 58.8684 1368.23 59.3676 1368.52 59.7809C1368.84 60.1931 1369.25 60.4988 1369.75 60.6979C1370.28 60.8732 1370.87 60.9439 1371.53 60.9097C1372.36 60.8661 1373.09 60.6584 1373.73 60.2866C1374.38 59.9137 1374.89 59.4134 1375.24 58.7859C1375.61 58.1346 1375.78 57.404 1375.73 56.5939L1375.7 56.01C1375.26 55.8223 1374.81 55.6799 1374.36 55.5829C1373.51 55.3791 1372.62 55.3018 1371.67 55.3514C1370.8 55.3973 1370.08 55.5476 1369.53 55.8021C1369 56.0554 1368.62 56.3917 1368.37 56.8109Z" fill="white"/>
<path fill-rule="evenodd" clip-rule="evenodd" d="M1399.9 60.7764C1398.72 61.4926 1397.3 61.8944 1395.63 61.9816C1394.19 62.0571 1392.89 61.7868 1391.73 61.1707C1390.59 60.531 1389.67 59.62 1388.98 58.438C1388.31 57.2548 1387.93 55.8644 1387.85 54.2668C1387.76 52.6467 1388 51.2127 1388.57 49.9646C1389.16 48.7153 1390.01 47.7231 1391.12 46.9879C1392.26 46.2515 1393.59 45.8433 1395.12 45.7631C1396.65 45.6829 1397.97 45.9408 1399.09 46.5367C1400.22 47.109 1401.11 47.976 1401.76 49.138C1402.41 50.2999 1402.77 51.7021 1402.86 53.3447C1402.87 53.5022 1402.87 53.6715 1402.85 53.8527L1402.87 54.1565L1390.65 54.7968C1390.77 55.651 1390.99 56.3953 1391.31 57.0299C1391.74 57.8648 1392.33 58.4879 1393.1 58.899C1393.87 59.3101 1394.78 59.488 1395.84 59.4325C1396.89 59.3771 1397.82 59.1031 1398.6 58.6107C1399.39 58.0957 1400.04 57.351 1400.55 56.3764L1402.82 57.6453C1402.07 58.9928 1401.1 60.0366 1399.9 60.7764ZM1390.63 52.4965C1390.7 51.9129 1390.83 51.3871 1391.02 50.9191C1391.38 50.0653 1391.91 49.4057 1392.61 48.9405C1393.33 48.4516 1394.21 48.18 1395.24 48.1257C1396.12 48.0797 1396.9 48.2309 1397.57 48.5793C1398.24 48.9276 1398.77 49.4298 1399.17 50.086C1399.52 50.6349 1399.74 51.2776 1399.83 52.0143L1390.63 52.4965Z" fill="white"/>
<path d="M1169.16 77.2762L1160.07 77.753L1168.44 63.5172L1177.54 63.0404L1169.16 77.2762Z" fill="white"/>
<path d="M1164.37 49.4891L1173.69 49.0006L1165.11 63.6918L1155.79 64.1803L1164.37 49.4891Z" fill="white"/>
<path d="M1195.99 59.8344C1196.03 60.6782 1195.87 61.4799 1195.5 62.2395C1195.15 62.9983 1194.55 63.6263 1193.72 64.1233C1192.9 64.6195 1191.84 64.9016 1190.55 64.9695L1187.9 65.1081L1188.22 71.1652L1185.05 71.331L1184.23 55.5555L1190.04 55.2511C1191.26 55.1871 1192.31 55.3436 1193.19 55.7205C1194.07 56.0973 1194.74 56.6439 1195.2 57.3601C1195.68 58.0755 1195.94 58.9003 1195.99 59.8344ZM1190.28 62.4227C1191.15 62.3769 1191.79 62.1471 1192.19 61.7332C1192.59 61.3043 1192.77 60.7282 1192.73 60.005C1192.65 58.4681 1191.75 57.7447 1190.04 57.8347L1187.53 57.9662L1187.77 62.5542L1190.28 62.4227Z" fill="white"/>
<path d="M1200.51 59.9147C1200.88 59.2304 1201.38 58.6829 1202.01 58.2723C1202.65 57.8608 1203.4 57.633 1204.24 57.5888L1204.42 60.9112L1203.58 60.955C1202.58 61.0071 1201.84 61.2801 1201.36 61.7741C1200.88 62.2672 1200.68 63.0939 1200.74 64.2541L1201.06 70.4919L1197.9 70.6578L1197.24 58.1368L1200.41 57.971L1200.51 59.9147Z" fill="white"/>
<path d="M1211.7 70.1383C1210.5 70.2015 1209.4 69.9946 1208.41 69.5178C1207.42 69.0259 1206.62 68.3049 1206.01 67.3547C1205.41 66.4038 1205.08 65.288 1205.01 64.0072C1204.95 62.7265 1205.17 61.5819 1205.67 60.5733C1206.19 59.5639 1206.93 58.7698 1207.88 58.1912C1208.83 57.5974 1209.91 57.2689 1211.12 57.2058C1212.32 57.1426 1213.43 57.3566 1214.44 57.8477C1215.44 58.3237 1216.25 59.0368 1216.86 59.9869C1217.48 60.9363 1217.83 62.0514 1217.9 63.3321C1217.96 64.6128 1217.73 65.7583 1217.19 66.7684C1216.67 67.7778 1215.93 68.5798 1214.96 69.1743C1214.01 69.753 1212.93 70.0743 1211.7 70.1383ZM1211.56 67.381C1212.13 67.351 1212.66 67.1873 1213.14 66.89C1213.64 66.5769 1214.03 66.1337 1214.3 65.5604C1214.57 64.9871 1214.68 64.3012 1214.64 63.5027C1214.58 62.3123 1214.22 61.4173 1213.55 60.8177C1212.9 60.2022 1212.12 59.9181 1211.22 59.9655C1210.31 60.0128 1209.57 60.3767 1208.99 61.0569C1208.42 61.7214 1208.16 62.6487 1208.22 63.839C1208.29 65.0294 1208.63 65.9331 1209.25 66.5502C1209.89 67.1514 1210.66 67.4283 1211.56 67.381Z" fill="white"/>
<path d="M1222.68 66.8438L1226.07 66.6657L1226.2 69.1744L1219.64 69.5183L1218.71 51.7991L1221.88 51.6333L1222.68 66.8438Z" fill="white"/>
<path d="M1227.92 55.0331C1227.37 55.0624 1226.89 54.9136 1226.5 54.5868C1226.12 54.2441 1225.91 53.8091 1225.88 53.2817C1225.86 52.7544 1226.01 52.3079 1226.36 51.9424C1226.72 51.5611 1227.17 51.3558 1227.73 51.3266C1228.29 51.2974 1228.76 51.4541 1229.14 51.7967C1229.53 52.1236 1229.74 52.5506 1229.77 53.078C1229.8 53.6054 1229.63 54.0597 1229.28 54.4411C1228.93 54.8066 1228.48 55.0039 1227.92 55.0331ZM1229.56 56.4431L1230.22 68.964L1227.05 69.1299L1226.4 56.6089L1229.56 56.4431Z" fill="white"/>
<path d="M1238.71 55.7822C1240.21 55.704 1241.44 56.1155 1242.4 57.0165C1243.37 57.9025 1243.9 59.1893 1243.99 60.8769L1244.37 68.2222L1241.21 68.388L1240.85 61.4721C1240.8 60.4777 1240.51 59.7298 1239.98 59.2285C1239.46 58.7121 1238.76 58.4764 1237.91 58.5215C1237.03 58.5673 1236.35 58.8748 1235.87 59.4441C1235.4 59.9975 1235.19 60.7714 1235.24 61.7658L1235.6 68.6818L1232.44 68.8476L1231.78 56.3266L1234.95 56.1608L1235.03 57.7203C1235.42 57.1557 1235.94 56.7058 1236.57 56.3705C1237.22 56.0194 1237.93 55.8232 1238.71 55.7822Z" fill="white"/>
<path d="M1257.78 60.9702C1257.8 61.4222 1257.79 61.8306 1257.75 62.1954L1248.6 62.6751C1248.72 63.5752 1249.07 64.2668 1249.66 64.7498C1250.24 65.2329 1250.94 65.4531 1251.75 65.4105C1252.93 65.3489 1253.74 64.8003 1254.18 63.7647L1257.6 63.5859C1257.3 64.8102 1256.66 65.841 1255.67 66.6782C1254.69 67.5003 1253.45 67.9505 1251.96 68.0286C1250.75 68.0918 1249.66 67.885 1248.66 67.4082C1247.69 66.9155 1246.9 66.1937 1246.31 65.2427C1245.73 64.291 1245.4 63.1748 1245.34 61.894C1245.27 60.5982 1245.47 59.4468 1245.95 58.4398C1246.43 57.4328 1247.12 56.6407 1248.05 56.0636C1248.97 55.4865 1250.05 55.1656 1251.28 55.1009C1252.47 55.0385 1253.55 55.239 1254.51 55.7023C1255.48 56.1648 1256.25 56.8573 1256.82 57.7797C1257.39 58.6862 1257.71 59.7497 1257.78 60.9702ZM1254.45 60.2379C1254.39 59.425 1254.07 58.7925 1253.47 58.3404C1252.87 57.8732 1252.16 57.6613 1251.33 57.7047C1250.54 57.7458 1249.89 58.0216 1249.38 58.5322C1248.87 59.0269 1248.58 59.6993 1248.51 60.5494L1254.45 60.2379Z" fill="white"/>
</svg>
