<svg width="572" height="40" viewBox="0 0 572 40" fill="none" xmlns="http://www.w3.org/2000/svg">
<path d="M21.273 4.62954C15.3935 3.73537 9.86944 7.55953 8.68378 13.3419C8.47284 14.3752 8.1554 15.2117 7.71588 15.8988C7.67682 15.9608 7.64166 16.0258 7.61139 16.0927L5.48132 20.8329C5.27911 21.2837 5.31134 21.8042 5.56726 22.2262C5.8241 22.649 6.27142 22.9176 6.76465 22.946L9.19165 23.0837V25.7597C9.19165 27.087 10.2709 28.1662 11.5972 28.1662H12.9694V31.3658C12.9694 32.194 13.6414 32.8659 14.4695 32.8659H24.5175C25.3457 32.8659 26.0176 32.194 26.0176 31.3658C26.0176 28.7542 26.842 24.7928 28.682 21.8277C28.683 21.8267 28.683 21.8257 28.6839 21.8247C30.3677 19.3694 30.9781 16.3764 30.4009 13.3888C30.4009 13.3883 30.4009 13.3883 30.4009 13.3883C29.5239 8.84871 25.8555 5.32882 21.273 4.62954ZM26.1847 20.1639C26.1603 20.1991 26.1378 20.2357 26.1163 20.2728C24.4824 22.9167 23.3514 26.5391 23.0798 29.8656H15.9697V27.5714C15.9697 26.2451 14.8905 25.1659 13.5632 25.1659H12.1919V22.5221C12.1919 21.2475 11.1948 20.1927 9.92217 20.12L9.11156 20.0741L10.305 17.418C10.9145 16.437 11.3462 15.2991 11.6235 13.944C12.4879 9.72871 16.5352 6.93934 20.8198 7.59565C24.0995 8.09571 26.8273 10.7122 27.4553 13.9572C27.8812 16.1649 27.4299 18.3693 26.1847 20.1639ZM4.58765 27.4015C4.58765 30.102 6.78516 32.2995 9.48566 32.2995C10.3138 32.2995 10.9858 31.6275 10.9858 30.7993C10.9858 29.9711 10.3138 29.2992 9.48566 29.2992C8.43964 29.2992 7.58795 28.4475 7.58795 27.4015C7.58795 26.5733 6.91601 25.9013 6.08783 25.9013C5.25958 25.9013 4.58765 26.5733 4.58765 27.4015Z" fill="#F1BF5A"/>
<path d="M2.88714 27.2305C2.05895 27.2305 1.38696 27.9025 1.38696 28.7306C1.38696 32.4634 4.42346 35.4999 8.15527 35.4999C8.98352 35.4999 9.65545 34.828 9.65545 33.9998C9.65545 33.1716 8.98351 32.4996 8.15527 32.4996C6.07794 32.4996 4.38733 30.809 4.38733 28.7307C4.38732 27.9025 3.71538 27.2305 2.88714 27.2305Z" fill="#F1BF5A"/>
<path d="M43.4091 26V14.3636H47.3409C48.2538 14.3636 49 14.5284 49.5795 14.858C50.1629 15.1837 50.5947 15.625 50.875 16.1818C51.1553 16.7386 51.2955 17.3598 51.2955 18.0455C51.2955 18.7311 51.1553 19.3542 50.875 19.9148C50.5985 20.4754 50.1705 20.9223 49.5909 21.2557C49.0114 21.5852 48.2689 21.75 47.3636 21.75H44.5455V20.5H47.3182C47.9432 20.5 48.4451 20.392 48.8239 20.1761C49.2027 19.9602 49.4773 19.6686 49.6477 19.3011C49.822 18.9299 49.9091 18.5114 49.9091 18.0455C49.9091 17.5795 49.822 17.1629 49.6477 16.7955C49.4773 16.428 49.2008 16.1402 48.8182 15.9318C48.4356 15.7197 47.928 15.6136 47.2955 15.6136H44.8182V26H43.4091ZM58.8835 22.4318V17.2727H60.2244V26H58.8835V24.5227H58.7926C58.5881 24.9659 58.2699 25.3428 57.8381 25.6534C57.4063 25.9602 56.8608 26.1136 56.2017 26.1136C55.6562 26.1136 55.1714 25.9943 54.7472 25.7557C54.3229 25.5133 53.9896 25.1496 53.7472 24.6648C53.5047 24.1761 53.3835 23.5606 53.3835 22.8182V17.2727H54.7244V22.7273C54.7244 23.3636 54.9025 23.8712 55.2585 24.25C55.6184 24.6288 56.0767 24.8182 56.6335 24.8182C56.9669 24.8182 57.3059 24.733 57.6506 24.5625C57.9991 24.392 58.2907 24.1307 58.5256 23.7784C58.7642 23.4261 58.8835 22.9773 58.8835 22.4318ZM62.8622 26V14.3636H64.2031V18.6591H64.3168C64.4152 18.5076 64.5516 18.3144 64.7259 18.0795C64.9039 17.8409 65.1577 17.6288 65.4872 17.4432C65.8205 17.2538 66.2713 17.1591 66.8395 17.1591C67.5743 17.1591 68.2221 17.3428 68.7827 17.7102C69.3433 18.0777 69.7808 18.5985 70.0952 19.2727C70.4096 19.947 70.5668 20.7424 70.5668 21.6591C70.5668 22.5833 70.4096 23.3845 70.0952 24.0625C69.7808 24.7367 69.3452 25.2595 68.7884 25.6307C68.2315 25.9981 67.5895 26.1818 66.8622 26.1818C66.3016 26.1818 65.8527 26.089 65.5156 25.9034C65.1785 25.714 64.919 25.5 64.7372 25.2614C64.5554 25.0189 64.4152 24.8182 64.3168 24.6591H64.1577V26H62.8622ZM64.1804 21.6364C64.1804 22.2955 64.277 22.8769 64.4702 23.3807C64.6634 23.8807 64.9455 24.2727 65.3168 24.5568C65.688 24.8371 66.1425 24.9773 66.6804 24.9773C67.241 24.9773 67.7088 24.8295 68.0838 24.5341C68.4626 24.2348 68.7467 23.8333 68.9361 23.3295C69.1293 22.822 69.2259 22.2576 69.2259 21.6364C69.2259 21.0227 69.1312 20.4697 68.9418 19.9773C68.7562 19.4811 68.474 19.089 68.0952 18.8011C67.7202 18.5095 67.2486 18.3636 66.6804 18.3636C66.1349 18.3636 65.6766 18.5019 65.3054 18.7784C64.9342 19.0511 64.6539 19.4337 64.4645 19.9261C64.2751 20.4148 64.1804 20.9848 64.1804 21.6364ZM73.9588 14.3636V26H72.6179V14.3636H73.9588ZM76.4148 26V17.2727H77.7557V26H76.4148ZM77.0966 15.8182C76.8352 15.8182 76.6098 15.7292 76.4205 15.5511C76.2348 15.3731 76.142 15.1591 76.142 14.9091C76.142 14.6591 76.2348 14.4451 76.4205 14.267C76.6098 14.089 76.8352 14 77.0966 14C77.358 14 77.5814 14.089 77.767 14.267C77.9564 14.4451 78.0511 14.6591 78.0511 14.9091C78.0511 15.1591 77.9564 15.3731 77.767 15.5511C77.5814 15.7292 77.358 15.8182 77.0966 15.8182ZM83.7571 26.1818C82.9389 26.1818 82.2344 25.9886 81.6435 25.6023C81.0526 25.2159 80.598 24.6837 80.2798 24.0057C79.9616 23.3277 79.8026 22.553 79.8026 21.6818C79.8026 20.7955 79.9654 20.0133 80.2912 19.3352C80.6207 18.6534 81.0791 18.1212 81.6662 17.7386C82.2571 17.3523 82.9465 17.1591 83.7344 17.1591C84.348 17.1591 84.901 17.2727 85.3935 17.5C85.8859 17.7273 86.2893 18.0455 86.6037 18.4545C86.9181 18.8636 87.1132 19.3409 87.1889 19.8864H85.848C85.7457 19.4886 85.5185 19.1364 85.1662 18.8295C84.8177 18.5189 84.348 18.3636 83.7571 18.3636C83.2344 18.3636 82.776 18.5 82.3821 18.7727C81.992 19.0417 81.687 19.4223 81.4673 19.9148C81.2514 20.4034 81.1435 20.9773 81.1435 21.6364C81.1435 22.3106 81.2495 22.8977 81.4616 23.3977C81.6776 23.8977 81.9806 24.286 82.3707 24.5625C82.7647 24.839 83.2268 24.9773 83.7571 24.9773C84.1056 24.9773 84.4219 24.9167 84.706 24.7955C84.9901 24.6742 85.2306 24.5 85.4276 24.2727C85.6245 24.0455 85.7647 23.7727 85.848 23.4545H87.1889C87.1132 23.9697 86.9257 24.4337 86.6264 24.8466C86.331 25.2557 85.9389 25.5814 85.4503 25.8239C84.9654 26.0625 84.401 26.1818 83.7571 26.1818ZM100.195 17.2727C100.126 16.697 99.8499 16.25 99.3651 15.9318C98.8802 15.6136 98.2855 15.4545 97.581 15.4545C97.0658 15.4545 96.6151 15.5379 96.2287 15.7045C95.8461 15.8712 95.5469 16.1004 95.331 16.392C95.1188 16.6837 95.0128 17.0152 95.0128 17.3864C95.0128 17.697 95.0866 17.964 95.2344 18.1875C95.3859 18.4072 95.5791 18.5909 95.8139 18.7386C96.0488 18.8826 96.295 19.0019 96.5526 19.0966C96.8101 19.1875 97.0469 19.2614 97.2628 19.3182L98.4446 19.6364C98.7476 19.7159 99.0848 19.8258 99.456 19.9659C99.831 20.1061 100.189 20.2973 100.53 20.5398C100.875 20.7784 101.159 21.0852 101.382 21.4602C101.606 21.8352 101.717 22.2955 101.717 22.8409C101.717 23.4697 101.553 24.0379 101.223 24.5455C100.897 25.053 100.42 25.4564 99.7912 25.7557C99.1662 26.0549 98.4067 26.2045 97.5128 26.2045C96.6795 26.2045 95.9579 26.0701 95.348 25.8011C94.742 25.5322 94.2647 25.1572 93.9162 24.6761C93.5715 24.1951 93.3764 23.6364 93.331 23H94.7855C94.8234 23.4394 94.9711 23.803 95.2287 24.0909C95.4901 24.375 95.8196 24.5871 96.2173 24.7273C96.6188 24.8636 97.0507 24.9318 97.5128 24.9318C98.0507 24.9318 98.5336 24.8447 98.9616 24.6705C99.3897 24.4924 99.7287 24.2462 99.9787 23.9318C100.229 23.6136 100.354 23.2424 100.354 22.8182C100.354 22.4318 100.246 22.1174 100.03 21.875C99.8139 21.6326 99.5298 21.4356 99.1776 21.2841C98.8253 21.1326 98.4446 21 98.0355 20.8864L96.6037 20.4773C95.6946 20.2159 94.9749 19.8428 94.4446 19.358C93.9143 18.8731 93.6491 18.2386 93.6491 17.4545C93.6491 16.803 93.8253 16.2348 94.1776 15.75C94.5336 15.2614 95.0109 14.8826 95.6094 14.6136C96.2116 14.3409 96.884 14.2045 97.6264 14.2045C98.3764 14.2045 99.0431 14.339 99.6264 14.608C100.21 14.8731 100.672 15.2367 101.013 15.6989C101.357 16.161 101.539 16.6856 101.558 17.2727H100.195ZM103.852 29.2727V17.2727H105.148V18.6591H105.307C105.405 18.5076 105.542 18.3144 105.716 18.0795C105.894 17.8409 106.148 17.6288 106.477 17.4432C106.811 17.2538 107.261 17.1591 107.83 17.1591C108.564 17.1591 109.212 17.3428 109.773 17.7102C110.333 18.0777 110.771 18.5985 111.085 19.2727C111.4 19.947 111.557 20.7424 111.557 21.6591C111.557 22.5833 111.4 23.3845 111.085 24.0625C110.771 24.7367 110.335 25.2595 109.778 25.6307C109.222 25.9981 108.58 26.1818 107.852 26.1818C107.292 26.1818 106.843 26.089 106.506 25.9034C106.169 25.714 105.909 25.5 105.727 25.2614C105.545 25.0189 105.405 24.8182 105.307 24.6591H105.193V29.2727H103.852ZM105.17 21.6364C105.17 22.2955 105.267 22.8769 105.46 23.3807C105.653 23.8807 105.936 24.2727 106.307 24.5568C106.678 24.8371 107.133 24.9773 107.67 24.9773C108.231 24.9773 108.699 24.8295 109.074 24.5341C109.453 24.2348 109.737 23.8333 109.926 23.3295C110.119 22.822 110.216 22.2576 110.216 21.6364C110.216 21.0227 110.121 20.4697 109.932 19.9773C109.746 19.4811 109.464 19.089 109.085 18.8011C108.71 18.5095 108.239 18.3636 107.67 18.3636C107.125 18.3636 106.667 18.5019 106.295 18.7784C105.924 19.0511 105.644 19.4337 105.455 19.9261C105.265 20.4148 105.17 20.9848 105.17 21.6364ZM117.261 26.1818C116.42 26.1818 115.695 25.9962 115.085 25.625C114.479 25.25 114.011 24.7273 113.682 24.0568C113.356 23.3826 113.193 22.5985 113.193 21.7045C113.193 20.8106 113.356 20.0227 113.682 19.3409C114.011 18.6553 114.47 18.1212 115.057 17.7386C115.648 17.3523 116.337 17.1591 117.125 17.1591C117.58 17.1591 118.028 17.2348 118.472 17.3864C118.915 17.5379 119.318 17.7841 119.682 18.125C120.045 18.4621 120.335 18.9091 120.551 19.4659C120.767 20.0227 120.875 20.7083 120.875 21.5227V22.0909H114.148V20.9318H119.511C119.511 20.4394 119.413 20 119.216 19.6136C119.023 19.2273 118.746 18.9223 118.386 18.6989C118.03 18.4754 117.61 18.3636 117.125 18.3636C116.591 18.3636 116.129 18.4962 115.739 18.7614C115.352 19.0227 115.055 19.3636 114.847 19.7841C114.638 20.2045 114.534 20.6553 114.534 21.1364V21.9091C114.534 22.5682 114.648 23.1269 114.875 23.5852C115.106 24.0398 115.426 24.3864 115.835 24.625C116.244 24.8598 116.72 24.9773 117.261 24.9773C117.614 24.9773 117.932 24.928 118.216 24.8295C118.504 24.7273 118.752 24.5758 118.96 24.375C119.169 24.1705 119.33 23.9167 119.443 23.6136L120.739 23.9773C120.602 24.4167 120.373 24.803 120.051 25.1364C119.729 25.4659 119.331 25.7235 118.858 25.9091C118.384 26.0909 117.852 26.1818 117.261 26.1818ZM125.483 26.2045C124.93 26.2045 124.428 26.1004 123.977 25.892C123.527 25.6799 123.169 25.375 122.903 24.9773C122.638 24.5758 122.506 24.0909 122.506 23.5227C122.506 23.0227 122.604 22.6174 122.801 22.3068C122.998 21.9924 123.261 21.7462 123.591 21.5682C123.92 21.3902 124.284 21.2576 124.682 21.1705C125.083 21.0795 125.487 21.0076 125.892 20.9545C126.422 20.8864 126.852 20.8352 127.182 20.8011C127.515 20.7633 127.758 20.7008 127.909 20.6136C128.064 20.5265 128.142 20.375 128.142 20.1591V20.1136C128.142 19.553 127.989 19.1174 127.682 18.8068C127.379 18.4962 126.919 18.3409 126.301 18.3409C125.661 18.3409 125.159 18.4811 124.795 18.7614C124.432 19.0417 124.176 19.3409 124.028 19.6591L122.756 19.2045C122.983 18.6742 123.286 18.2614 123.665 17.9659C124.047 17.6667 124.464 17.4583 124.915 17.3409C125.369 17.2197 125.816 17.1591 126.256 17.1591C126.536 17.1591 126.858 17.1932 127.222 17.2614C127.589 17.3258 127.943 17.4602 128.284 17.6648C128.629 17.8693 128.915 18.178 129.142 18.5909C129.369 19.0038 129.483 19.5568 129.483 20.25V26H128.142V24.8182H128.074C127.983 25.0076 127.831 25.2102 127.619 25.4261C127.407 25.642 127.125 25.8258 126.773 25.9773C126.42 26.1288 125.991 26.2045 125.483 26.2045ZM125.688 25C126.218 25 126.665 24.8958 127.028 24.6875C127.396 24.4792 127.672 24.2102 127.858 23.8807C128.047 23.5511 128.142 23.2045 128.142 22.8409V21.6136C128.085 21.6818 127.96 21.7443 127.767 21.8011C127.578 21.8542 127.358 21.9015 127.108 21.9432C126.862 21.9811 126.621 22.0152 126.386 22.0455C126.155 22.072 125.968 22.0947 125.824 22.1136C125.475 22.1591 125.15 22.233 124.847 22.3352C124.547 22.4337 124.305 22.5833 124.119 22.7841C123.938 22.9811 123.847 23.25 123.847 23.5909C123.847 24.0568 124.019 24.4091 124.364 24.6477C124.712 24.8826 125.153 25 125.688 25ZM133.18 22.8182L133.158 21.1591H133.43L137.249 17.2727H138.908L134.839 21.3864H134.726L133.18 22.8182ZM131.93 26V14.3636H133.271V26H131.93ZM137.476 26L134.067 21.6818L135.021 20.75L139.18 26H137.476ZM140.634 26V17.2727H141.974V26H140.634ZM141.315 15.8182C141.054 15.8182 140.829 15.7292 140.639 15.5511C140.454 15.3731 140.361 15.1591 140.361 14.9091C140.361 14.6591 140.454 14.4451 140.639 14.267C140.829 14.089 141.054 14 141.315 14C141.577 14 141.8 14.089 141.986 14.267C142.175 14.4451 142.27 14.6591 142.27 14.9091C142.27 15.1591 142.175 15.3731 141.986 15.5511C141.8 15.7292 141.577 15.8182 141.315 15.8182ZM145.771 20.75V26H144.43V17.2727H145.726V18.6364H145.839C146.044 18.1932 146.355 17.8371 146.771 17.5682C147.188 17.2955 147.726 17.1591 148.385 17.1591C148.976 17.1591 149.493 17.2803 149.936 17.5227C150.379 17.7614 150.724 18.125 150.97 18.6136C151.216 19.0985 151.339 19.7121 151.339 20.4545V26H149.999V20.5455C149.999 19.8598 149.821 19.3258 149.464 18.9432C149.108 18.5568 148.62 18.3636 147.999 18.3636C147.571 18.3636 147.188 18.4564 146.851 18.642C146.518 18.8277 146.254 19.0985 146.061 19.4545C145.868 19.8106 145.771 20.2424 145.771 20.75ZM157.312 29.4545C156.665 29.4545 156.108 29.3712 155.642 29.2045C155.176 29.0417 154.788 28.8258 154.477 28.5568C154.17 28.2917 153.926 28.0076 153.744 27.7045L154.812 26.9545C154.934 27.1136 155.087 27.2955 155.273 27.5C155.458 27.7083 155.712 27.8883 156.034 28.0398C156.36 28.1951 156.786 28.2727 157.312 28.2727C158.017 28.2727 158.598 28.1023 159.057 27.7614C159.515 27.4205 159.744 26.8864 159.744 26.1591V24.3864H159.631C159.532 24.5455 159.392 24.7424 159.21 24.9773C159.032 25.2083 158.775 25.4148 158.438 25.5966C158.104 25.7746 157.653 25.8636 157.085 25.8636C156.381 25.8636 155.748 25.697 155.188 25.3636C154.631 25.0303 154.189 24.5455 153.864 23.9091C153.542 23.2727 153.381 22.5 153.381 21.5909C153.381 20.697 153.538 19.9186 153.852 19.2557C154.167 18.589 154.604 18.0739 155.165 17.7102C155.725 17.3428 156.373 17.1591 157.108 17.1591C157.676 17.1591 158.127 17.2538 158.46 17.4432C158.797 17.6288 159.055 17.8409 159.233 18.0795C159.415 18.3144 159.555 18.5076 159.653 18.6591H159.79V17.2727H161.085V26.25C161.085 27 160.915 27.6098 160.574 28.0795C160.237 28.553 159.782 28.8996 159.21 29.1193C158.642 29.3428 158.009 29.4545 157.312 29.4545ZM157.267 24.6591C157.805 24.6591 158.259 24.536 158.631 24.2898C159.002 24.0436 159.284 23.6894 159.477 23.2273C159.67 22.7652 159.767 22.2121 159.767 21.5682C159.767 20.9394 159.672 20.3845 159.483 19.9034C159.294 19.4223 159.013 19.0455 158.642 18.7727C158.271 18.5 157.813 18.3636 157.267 18.3636C156.699 18.3636 156.225 18.5076 155.847 18.7955C155.472 19.0833 155.189 19.4697 155 19.9545C154.814 20.4394 154.722 20.9773 154.722 21.5682C154.722 22.1742 154.816 22.7102 155.006 23.1761C155.199 23.6383 155.483 24.0019 155.858 24.267C156.237 24.5284 156.706 24.6591 157.267 24.6591Z" fill="#1D2939" fill-opacity="0.7"/>
<g clip-path="url(#clip0_1_180)">
<path d="M228.397 13.2041C228.397 11.2246 226.788 9.61426 224.809 9.61426H221.127V9.13379C221.127 6.5791 219.049 4.5 216.494 4.5H209.506C206.951 4.5 204.873 6.5791 204.873 9.13379V9.61426H201.191C199.212 9.61426 197.603 11.2246 197.603 13.2041V14.831C197.603 16.9765 198.375 18.9437 199.654 20.4736V29.8213C199.654 32.9521 202.201 35.5 205.333 35.5H220.667C223.799 35.5 226.346 32.9521 226.346 29.8213V20.4736C227.625 18.9437 228.397 16.9765 228.397 14.831V13.2041ZM207.873 9.13379C207.873 8.2334 208.605 7.5 209.506 7.5H216.494C217.395 7.5 218.127 8.2334 218.127 9.13379V9.61426H207.873V9.13379ZM200.603 13.2041C200.603 12.8789 200.867 12.6143 201.191 12.6143H224.809C225.133 12.6143 225.397 12.8789 225.397 13.2041V14.831C225.397 16.3829 224.783 17.7911 223.788 18.8346C223.785 18.8379 223.782 18.8418 223.779 18.8452C222.72 19.9509 221.233 20.6436 219.585 20.6436H218.846V20.2334C218.846 19.4053 218.175 18.7334 217.346 18.7334C216.518 18.7334 215.846 19.4053 215.846 20.2334V20.6436H210.154V20.2334C210.154 19.4053 209.482 18.7334 208.654 18.7334C207.825 18.7334 207.154 19.4053 207.154 20.2334V20.6436H206.415C204.767 20.6436 203.28 19.9509 202.221 18.8452C202.218 18.8418 202.215 18.838 202.212 18.8346C201.217 17.7911 200.603 16.3829 200.603 14.8311V13.2041ZM220.667 32.5H205.333C203.855 32.5 202.654 31.2978 202.654 29.8213V22.7888C203.796 23.3311 205.068 23.6436 206.415 23.6436H207.154V24.0537C207.154 24.8819 207.825 25.5537 208.654 25.5537C209.482 25.5537 210.154 24.8818 210.154 24.0537V23.6436H215.846V24.0537C215.846 24.8819 216.518 25.5537 217.346 25.5537C218.175 25.5537 218.846 24.8818 218.846 24.0537V23.6436H219.585C220.932 23.6436 222.204 23.3311 223.346 22.7888V29.8213C223.346 31.2978 222.145 32.5 220.667 32.5Z" fill="#F4876B"/>
</g>
<path d="M249.773 18H248.364C248.28 17.5947 248.134 17.2386 247.926 16.9318C247.722 16.625 247.472 16.3674 247.176 16.1591C246.884 15.947 246.561 15.7879 246.205 15.6818C245.848 15.5758 245.477 15.5227 245.091 15.5227C244.386 15.5227 243.748 15.7008 243.176 16.0568C242.608 16.4129 242.155 16.9375 241.818 17.6307C241.485 18.3239 241.318 19.1742 241.318 20.1818C241.318 21.1894 241.485 22.0398 241.818 22.733C242.155 23.4261 242.608 23.9508 243.176 24.3068C243.748 24.6629 244.386 24.8409 245.091 24.8409C245.477 24.8409 245.848 24.7879 246.205 24.6818C246.561 24.5758 246.884 24.4186 247.176 24.2102C247.472 23.9981 247.722 23.7386 247.926 23.4318C248.134 23.1212 248.28 22.7652 248.364 22.3636H249.773C249.667 22.9583 249.473 23.4905 249.193 23.9602C248.913 24.4299 248.564 24.8295 248.148 25.1591C247.731 25.4848 247.263 25.733 246.744 25.9034C246.229 26.0739 245.678 26.1591 245.091 26.1591C244.098 26.1591 243.216 25.9167 242.443 25.4318C241.67 24.947 241.063 24.2576 240.619 23.3636C240.176 22.4697 239.955 21.4091 239.955 20.1818C239.955 18.9545 240.176 17.8939 240.619 17C241.063 16.1061 241.67 15.4167 242.443 14.9318C243.216 14.447 244.098 14.2045 245.091 14.2045C245.678 14.2045 246.229 14.2898 246.744 14.4602C247.263 14.6307 247.731 14.8807 248.148 15.2102C248.564 15.536 248.913 15.9337 249.193 16.4034C249.473 16.8693 249.667 17.4015 249.773 18ZM254.436 26.2045C253.883 26.2045 253.381 26.1004 252.93 25.892C252.48 25.6799 252.122 25.375 251.857 24.9773C251.591 24.5758 251.459 24.0909 251.459 23.5227C251.459 23.0227 251.557 22.6174 251.754 22.3068C251.951 21.9924 252.214 21.7462 252.544 21.5682C252.874 21.3902 253.237 21.2576 253.635 21.1705C254.036 21.0795 254.44 21.0076 254.845 20.9545C255.375 20.8864 255.805 20.8352 256.135 20.8011C256.468 20.7633 256.711 20.7008 256.862 20.6136C257.018 20.5265 257.095 20.375 257.095 20.1591V20.1136C257.095 19.553 256.942 19.1174 256.635 18.8068C256.332 18.4962 255.872 18.3409 255.254 18.3409C254.614 18.3409 254.112 18.4811 253.749 18.7614C253.385 19.0417 253.129 19.3409 252.982 19.6591L251.709 19.2045C251.936 18.6742 252.239 18.2614 252.618 17.9659C253 17.6667 253.417 17.4583 253.868 17.3409C254.322 17.2197 254.769 17.1591 255.209 17.1591C255.489 17.1591 255.811 17.1932 256.175 17.2614C256.542 17.3258 256.896 17.4602 257.237 17.6648C257.582 17.8693 257.868 18.178 258.095 18.5909C258.322 19.0038 258.436 19.5568 258.436 20.25V26H257.095V24.8182H257.027C256.936 25.0076 256.785 25.2102 256.572 25.4261C256.36 25.642 256.078 25.8258 255.726 25.9773C255.374 26.1288 254.944 26.2045 254.436 26.2045ZM254.641 25C255.171 25 255.618 24.8958 255.982 24.6875C256.349 24.4792 256.625 24.2102 256.811 23.8807C257 23.5511 257.095 23.2045 257.095 22.8409V21.6136C257.038 21.6818 256.913 21.7443 256.72 21.8011C256.531 21.8542 256.311 21.9015 256.061 21.9432C255.815 21.9811 255.574 22.0152 255.339 22.0455C255.108 22.072 254.921 22.0947 254.777 22.1136C254.429 22.1591 254.103 22.233 253.8 22.3352C253.5 22.4337 253.258 22.5833 253.072 22.7841C252.891 22.9811 252.8 23.25 252.8 23.5909C252.8 24.0568 252.972 24.4091 253.317 24.6477C253.665 24.8826 254.107 25 254.641 25ZM260.884 26V17.2727H262.179V18.5909H262.27C262.429 18.1591 262.717 17.8087 263.134 17.5398C263.55 17.2708 264.02 17.1364 264.543 17.1364C264.641 17.1364 264.764 17.1383 264.912 17.142C265.06 17.1458 265.171 17.1515 265.247 17.1591V18.5227C265.202 18.5114 265.098 18.4943 264.935 18.4716C264.776 18.4451 264.607 18.4318 264.429 18.4318C264.005 18.4318 263.626 18.5208 263.293 18.6989C262.963 18.8731 262.702 19.1155 262.509 19.4261C262.319 19.733 262.224 20.0833 262.224 20.4773V26H260.884ZM270.23 26.1818C269.389 26.1818 268.664 25.9962 268.054 25.625C267.448 25.25 266.98 24.7273 266.651 24.0568C266.325 23.3826 266.162 22.5985 266.162 21.7045C266.162 20.8106 266.325 20.0227 266.651 19.3409C266.98 18.6553 267.438 18.1212 268.026 17.7386C268.616 17.3523 269.306 17.1591 270.094 17.1591C270.548 17.1591 270.997 17.2348 271.44 17.3864C271.884 17.5379 272.287 17.7841 272.651 18.125C273.014 18.4621 273.304 18.9091 273.52 19.4659C273.736 20.0227 273.844 20.7083 273.844 21.5227V22.0909H267.116V20.9318H272.48C272.48 20.4394 272.382 20 272.185 19.6136C271.991 19.2273 271.715 18.9223 271.355 18.6989C270.999 18.4754 270.579 18.3636 270.094 18.3636C269.56 18.3636 269.098 18.4962 268.707 18.7614C268.321 19.0227 268.024 19.3636 267.815 19.7841C267.607 20.2045 267.503 20.6553 267.503 21.1364V21.9091C267.503 22.5682 267.616 23.1269 267.844 23.5852C268.075 24.0398 268.395 24.3864 268.804 24.625C269.213 24.8598 269.688 24.9773 270.23 24.9773C270.582 24.9773 270.901 24.928 271.185 24.8295C271.473 24.7273 271.721 24.5758 271.929 24.375C272.137 24.1705 272.298 23.9167 272.412 23.6136L273.707 23.9773C273.571 24.4167 273.342 24.803 273.02 25.1364C272.698 25.4659 272.3 25.7235 271.827 25.9091C271.353 26.0909 270.821 26.1818 270.23 26.1818ZM279.543 26.1818C278.702 26.1818 277.976 25.9962 277.366 25.625C276.76 25.25 276.293 24.7273 275.963 24.0568C275.637 23.3826 275.474 22.5985 275.474 21.7045C275.474 20.8106 275.637 20.0227 275.963 19.3409C276.293 18.6553 276.751 18.1212 277.338 17.7386C277.929 17.3523 278.618 17.1591 279.406 17.1591C279.861 17.1591 280.31 17.2348 280.753 17.3864C281.196 17.5379 281.599 17.7841 281.963 18.125C282.327 18.4621 282.616 18.9091 282.832 19.4659C283.048 20.0227 283.156 20.7083 283.156 21.5227V22.0909H276.429V20.9318H281.793C281.793 20.4394 281.694 20 281.497 19.6136C281.304 19.2273 281.027 18.9223 280.668 18.6989C280.312 18.4754 279.891 18.3636 279.406 18.3636C278.872 18.3636 278.41 18.4962 278.02 18.7614C277.634 19.0227 277.336 19.3636 277.128 19.7841C276.92 20.2045 276.815 20.6553 276.815 21.1364V21.9091C276.815 22.5682 276.929 23.1269 277.156 23.5852C277.387 24.0398 277.707 24.3864 278.116 24.625C278.526 24.8598 279.001 24.9773 279.543 24.9773C279.895 24.9773 280.213 24.928 280.497 24.8295C280.785 24.7273 281.033 24.5758 281.241 24.375C281.45 24.1705 281.611 23.9167 281.724 23.6136L283.02 23.9773C282.884 24.4167 282.654 24.803 282.332 25.1364C282.01 25.4659 281.613 25.7235 281.139 25.9091C280.666 26.0909 280.134 26.1818 279.543 26.1818ZM285.196 26V17.2727H286.491V18.5909H286.582C286.741 18.1591 287.029 17.8087 287.446 17.5398C287.863 17.2708 288.332 17.1364 288.855 17.1364C288.954 17.1364 289.077 17.1383 289.224 17.142C289.372 17.1458 289.484 17.1515 289.56 17.1591V18.5227C289.514 18.5114 289.41 18.4943 289.247 18.4716C289.088 18.4451 288.92 18.4318 288.741 18.4318C288.317 18.4318 287.938 18.5208 287.605 18.6989C287.276 18.8731 287.014 19.1155 286.821 19.4261C286.632 19.733 286.537 20.0833 286.537 20.4773V26H285.196ZM295.509 20.3864V21.6364H290.418V20.3864H295.509ZM307.868 20.1818C307.868 21.4091 307.646 22.4697 307.203 23.3636C306.76 24.2576 306.152 24.947 305.379 25.4318C304.607 25.9167 303.724 26.1591 302.732 26.1591C301.739 26.1591 300.857 25.9167 300.084 25.4318C299.311 24.947 298.703 24.2576 298.26 23.3636C297.817 22.4697 297.595 21.4091 297.595 20.1818C297.595 18.9545 297.817 17.8939 298.26 17C298.703 16.1061 299.311 15.4167 300.084 14.9318C300.857 14.447 301.739 14.2045 302.732 14.2045C303.724 14.2045 304.607 14.447 305.379 14.9318C306.152 15.4167 306.76 16.1061 307.203 17C307.646 17.8939 307.868 18.9545 307.868 20.1818ZM306.504 20.1818C306.504 19.1742 306.336 18.3239 305.999 17.6307C305.665 16.9375 305.213 16.4129 304.641 16.0568C304.072 15.7008 303.436 15.5227 302.732 15.5227C302.027 15.5227 301.389 15.7008 300.817 16.0568C300.249 16.4129 299.796 16.9375 299.459 17.6307C299.125 18.3239 298.959 19.1742 298.959 20.1818C298.959 21.1894 299.125 22.0398 299.459 22.733C299.796 23.4261 300.249 23.9508 300.817 24.3068C301.389 24.6629 302.027 24.8409 302.732 24.8409C303.436 24.8409 304.072 24.6629 304.641 24.3068C305.213 23.9508 305.665 23.4261 305.999 22.733C306.336 22.0398 306.504 21.1894 306.504 20.1818ZM310.055 26V17.2727H311.351V18.5909H311.442C311.601 18.1591 311.889 17.8087 312.305 17.5398C312.722 17.2708 313.192 17.1364 313.714 17.1364C313.813 17.1364 313.936 17.1383 314.084 17.142C314.232 17.1458 314.343 17.1515 314.419 17.1591V18.5227C314.374 18.5114 314.269 18.4943 314.107 18.4716C313.947 18.4451 313.779 18.4318 313.601 18.4318C313.177 18.4318 312.798 18.5208 312.464 18.6989C312.135 18.8731 311.874 19.1155 311.68 19.4261C311.491 19.733 311.396 20.0833 311.396 20.4773V26H310.055ZM316.009 26V17.2727H317.349V26H316.009ZM316.69 15.8182C316.429 15.8182 316.204 15.7292 316.014 15.5511C315.829 15.3731 315.736 15.1591 315.736 14.9091C315.736 14.6591 315.829 14.4451 316.014 14.267C316.204 14.089 316.429 14 316.69 14C316.952 14 317.175 14.089 317.361 14.267C317.55 14.4451 317.645 14.6591 317.645 14.9091C317.645 15.1591 317.55 15.3731 317.361 15.5511C317.175 15.7292 316.952 15.8182 316.69 15.8182ZM323.464 26.1818C322.624 26.1818 321.898 25.9962 321.288 25.625C320.682 25.25 320.214 24.7273 319.885 24.0568C319.559 23.3826 319.396 22.5985 319.396 21.7045C319.396 20.8106 319.559 20.0227 319.885 19.3409C320.214 18.6553 320.673 18.1212 321.26 17.7386C321.851 17.3523 322.54 17.1591 323.328 17.1591C323.783 17.1591 324.232 17.2348 324.675 17.3864C325.118 17.5379 325.521 17.7841 325.885 18.125C326.249 18.4621 326.538 18.9091 326.754 19.4659C326.97 20.0227 327.078 20.7083 327.078 21.5227V22.0909H320.351V20.9318H325.714C325.714 20.4394 325.616 20 325.419 19.6136C325.226 19.2273 324.949 18.9223 324.589 18.6989C324.233 18.4754 323.813 18.3636 323.328 18.3636C322.794 18.3636 322.332 18.4962 321.942 18.7614C321.555 19.0227 321.258 19.3636 321.05 19.7841C320.841 20.2045 320.737 20.6553 320.737 21.1364V21.9091C320.737 22.5682 320.851 23.1269 321.078 23.5852C321.309 24.0398 321.629 24.3864 322.038 24.625C322.447 24.8598 322.923 24.9773 323.464 24.9773C323.817 24.9773 324.135 24.928 324.419 24.8295C324.707 24.7273 324.955 24.5758 325.163 24.375C325.372 24.1705 325.533 23.9167 325.646 23.6136L326.942 23.9773C326.805 24.4167 326.576 24.803 326.254 25.1364C325.932 25.4659 325.535 25.7235 325.061 25.9091C324.588 26.0909 324.055 26.1818 323.464 26.1818ZM330.459 20.75V26H329.118V17.2727H330.413V18.6364H330.527C330.732 18.1932 331.042 17.8371 331.459 17.5682C331.875 17.2955 332.413 17.1591 333.072 17.1591C333.663 17.1591 334.18 17.2803 334.624 17.5227C335.067 17.7614 335.411 18.125 335.658 18.6136C335.904 19.0985 336.027 19.7121 336.027 20.4545V26H334.686V20.5455C334.686 19.8598 334.508 19.3258 334.152 18.9432C333.796 18.5568 333.307 18.3636 332.686 18.3636C332.258 18.3636 331.875 18.4564 331.538 18.642C331.205 18.8277 330.942 19.0985 330.749 19.4545C330.555 19.8106 330.459 20.2424 330.459 20.75ZM342.273 17.2727V18.4091H337.75V17.2727H342.273ZM339.068 15.1818H340.409V23.5C340.409 23.8788 340.464 24.1629 340.574 24.3523C340.688 24.5379 340.831 24.6629 341.006 24.7273C341.184 24.7879 341.371 24.8182 341.568 24.8182C341.716 24.8182 341.837 24.8106 341.932 24.7955C342.027 24.7765 342.102 24.7614 342.159 24.75L342.432 25.9545C342.341 25.9886 342.214 26.0227 342.051 26.0568C341.888 26.0947 341.682 26.1136 341.432 26.1136C341.053 26.1136 340.682 26.0322 340.318 25.8693C339.958 25.7064 339.659 25.4583 339.42 25.125C339.186 24.7917 339.068 24.3712 339.068 23.8636V15.1818ZM347.855 26.1818C347.014 26.1818 346.289 25.9962 345.679 25.625C345.073 25.25 344.605 24.7273 344.276 24.0568C343.95 23.3826 343.787 22.5985 343.787 21.7045C343.787 20.8106 343.95 20.0227 344.276 19.3409C344.605 18.6553 345.063 18.1212 345.651 17.7386C346.241 17.3523 346.931 17.1591 347.719 17.1591C348.173 17.1591 348.622 17.2348 349.065 17.3864C349.509 17.5379 349.912 17.7841 350.276 18.125C350.639 18.4621 350.929 18.9091 351.145 19.4659C351.361 20.0227 351.469 20.7083 351.469 21.5227V22.0909H344.741V20.9318H350.105C350.105 20.4394 350.007 20 349.81 19.6136C349.616 19.2273 349.34 18.9223 348.98 18.6989C348.624 18.4754 348.204 18.3636 347.719 18.3636C347.185 18.3636 346.723 18.4962 346.332 18.7614C345.946 19.0227 345.649 19.3636 345.44 19.7841C345.232 20.2045 345.128 20.6553 345.128 21.1364V21.9091C345.128 22.5682 345.241 23.1269 345.469 23.5852C345.7 24.0398 346.02 24.3864 346.429 24.625C346.838 24.8598 347.313 24.9773 347.855 24.9773C348.207 24.9773 348.526 24.928 348.81 24.8295C349.098 24.7273 349.346 24.5758 349.554 24.375C349.762 24.1705 349.923 23.9167 350.037 23.6136L351.332 23.9773C351.196 24.4167 350.967 24.803 350.645 25.1364C350.323 25.4659 349.925 25.7235 349.452 25.9091C348.978 26.0909 348.446 26.1818 347.855 26.1818ZM356.804 26.1818C356.077 26.1818 355.435 25.9981 354.878 25.6307C354.321 25.2595 353.885 24.7367 353.571 24.0625C353.257 23.3845 353.099 22.5833 353.099 21.6591C353.099 20.7424 353.257 19.947 353.571 19.2727C353.885 18.5985 354.323 18.0777 354.884 17.7102C355.444 17.3428 356.092 17.1591 356.827 17.1591C357.395 17.1591 357.844 17.2538 358.173 17.4432C358.507 17.6288 358.76 17.8409 358.935 18.0795C359.113 18.3144 359.251 18.5076 359.349 18.6591H359.463V14.3636H360.804V26H359.509V24.6591H359.349C359.251 24.8182 359.111 25.0189 358.929 25.2614C358.747 25.5 358.488 25.714 358.151 25.9034C357.813 26.089 357.365 26.1818 356.804 26.1818ZM356.986 24.9773C357.524 24.9773 357.978 24.8371 358.349 24.5568C358.721 24.2727 359.003 23.8807 359.196 23.3807C359.389 22.8769 359.486 22.2955 359.486 21.6364C359.486 20.9848 359.391 20.4148 359.202 19.9261C359.012 19.4337 358.732 19.0511 358.361 18.7784C357.99 18.5019 357.531 18.3636 356.986 18.3636C356.418 18.3636 355.944 18.5095 355.565 18.8011C355.19 19.089 354.908 19.4811 354.719 19.9773C354.533 20.4697 354.44 21.0227 354.44 21.6364C354.44 22.2576 354.535 22.822 354.724 23.3295C354.918 23.8333 355.202 24.2348 355.577 24.5341C355.955 24.8295 356.425 24.9773 356.986 24.9773Z" fill="#1D2939" fill-opacity="0.7"/>
<path d="M414 8V7C414 6.73478 413.895 6.48043 413.707 6.29289C413.52 6.10536 413.265 6 413 6C412.735 6 412.48 6.10536 412.293 6.29289C412.105 6.48043 412 6.73478 412 7V8C412 8.26522 412.105 8.51957 412.293 8.70711C412.48 8.89464 412.735 9 413 9C413.265 9 413.52 8.89464 413.707 8.70711C413.895 8.51957 414 8.26522 414 8ZM404.51 10.1C404.319 9.93617 404.073 9.85057 403.821 9.86029C403.569 9.87001 403.331 9.97434 403.152 10.1524C402.974 10.3305 402.87 10.5693 402.86 10.8209C402.851 11.0726 402.936 11.3187 403.1 11.51L403.81 12.22C404.001 12.3838 404.247 12.4694 404.499 12.4597C404.751 12.45 404.989 12.3457 405.168 12.1676C405.346 11.9895 405.45 11.7507 405.46 11.4991C405.469 11.2474 405.384 11.0013 405.22 10.81L404.51 10.1ZM401 21C401.265 21 401.52 20.8946 401.707 20.7071C401.895 20.5196 402 20.2652 402 20C402 19.7348 401.895 19.4804 401.707 19.2929C401.52 19.1054 401.265 19 401 19H400C399.735 19 399.48 19.1054 399.293 19.2929C399.105 19.4804 399 19.7348 399 20C399 20.2652 399.105 20.5196 399.293 20.7071C399.48 20.8946 399.735 21 400 21H401ZM403.1 29.9C403.287 30.0862 403.541 30.1908 403.805 30.1908C404.069 30.1908 404.323 30.0862 404.51 29.9L405.22 29.19C405.384 28.9987 405.469 28.7526 405.46 28.5009C405.45 28.2493 405.346 28.0105 405.168 27.8324C404.989 27.6543 404.751 27.55 404.499 27.5403C404.247 27.5306 404.001 27.6162 403.81 27.78L403.1 28.49C402.914 28.6774 402.809 28.9308 402.809 29.195C402.809 29.4592 402.914 29.7126 403.1 29.9ZM422.19 27.78C421.999 27.6162 421.753 27.5306 421.501 27.5403C421.249 27.55 421.011 27.6543 420.832 27.8324C420.654 28.0105 420.55 28.2493 420.54 28.5009C420.531 28.7526 420.616 28.9987 420.78 29.19L421.49 29.9C421.681 30.0638 421.927 30.1494 422.179 30.1397C422.431 30.13 422.669 30.0257 422.848 29.8476C423.026 29.6695 423.13 29.4307 423.14 29.1791C423.149 28.9274 423.064 28.6813 422.9 28.49L422.19 27.78ZM426 19H425C424.735 19 424.48 19.1054 424.293 19.2929C424.105 19.4804 424 19.7348 424 20C424 20.2652 424.105 20.5196 424.293 20.7071C424.48 20.8946 424.735 21 425 21H426C426.265 21 426.52 20.8946 426.707 20.7071C426.895 20.5196 427 20.2652 427 20C427 19.7348 426.895 19.4804 426.707 19.2929C426.52 19.1054 426.265 19 426 19ZM422.9 10.1C422.713 9.91375 422.459 9.80921 422.195 9.80921C421.931 9.80921 421.677 9.91375 421.49 10.1L420.78 10.81C420.675 10.8996 420.59 11.01 420.53 11.134C420.47 11.2581 420.437 11.3932 420.431 11.5309C420.426 11.6687 420.449 11.806 420.499 11.9343C420.55 12.0626 420.626 12.1792 420.723 12.2766C420.821 12.3741 420.937 12.4504 421.066 12.5006C421.194 12.5509 421.331 12.5741 421.469 12.5688C421.607 12.5635 421.742 12.5297 421.866 12.4697C421.99 12.4097 422.1 12.3247 422.19 12.22L422.9 11.51C423.086 11.3226 423.191 11.0692 423.191 10.805C423.191 10.5408 423.086 10.2874 422.9 10.1ZM404 20C404.002 21.4778 404.368 22.9324 405.066 24.2352C405.764 25.538 406.771 26.649 408 27.47V33C408 33.2652 408.105 33.5196 408.293 33.7071C408.48 33.8946 408.735 34 409 34H417C417.265 34 417.52 33.8946 417.707 33.7071C417.895 33.5196 418 33.2652 418 33V27.47C419.293 26.6059 420.341 25.4213 421.04 24.0318C421.739 22.6423 422.066 21.0954 421.989 19.5419C421.912 17.9883 421.434 16.4812 420.601 15.1676C419.768 13.8539 418.609 12.7785 417.237 12.0463C415.864 11.3141 414.326 10.95 412.771 10.9896C411.216 11.0292 409.698 11.4711 408.365 12.2723C407.031 13.0734 405.928 14.2064 405.163 15.5607C404.399 16.9151 403.998 18.4446 404 20ZM410 32V30H416V32H410ZM413 13C414.54 13.0008 416.037 13.5096 417.259 14.4476C418.481 15.3855 419.359 16.7002 419.758 18.188C420.156 19.6757 420.053 21.2534 419.464 22.6766C418.875 24.0998 417.833 25.289 416.5 26.06C416.347 26.1481 416.221 26.275 416.133 26.4277C416.045 26.5805 415.999 26.7538 416 26.93V28H414V22H416C416.265 22 416.52 21.8946 416.707 21.7071C416.895 21.5196 417 21.2652 417 21C417 20.7348 416.895 20.4804 416.707 20.2929C416.52 20.1054 416.265 20 416 20H410C409.735 20 409.48 20.1054 409.293 20.2929C409.105 20.4804 409 20.7348 409 21C409 21.2652 409.105 21.5196 409.293 21.7071C409.48 21.8946 409.735 22 410 22H412V28H410V26.92C410.001 26.7438 409.955 26.5705 409.867 26.4177C409.779 26.265 409.653 26.1381 409.5 26.05C408.172 25.2769 407.134 24.088 406.549 22.6668C405.963 21.2457 405.862 19.6713 406.26 18.1867C406.658 16.7021 407.534 15.3898 408.752 14.4524C409.97 13.515 411.463 13.0046 413 13Z" fill="#B4708D"/>
<path d="M449.773 18H448.364C448.28 17.5947 448.134 17.2386 447.926 16.9318C447.722 16.625 447.472 16.3674 447.176 16.1591C446.884 15.947 446.561 15.7879 446.205 15.6818C445.848 15.5758 445.477 15.5227 445.091 15.5227C444.386 15.5227 443.748 15.7008 443.176 16.0568C442.608 16.4129 442.155 16.9375 441.818 17.6307C441.485 18.3239 441.318 19.1742 441.318 20.1818C441.318 21.1894 441.485 22.0398 441.818 22.733C442.155 23.4261 442.608 23.9508 443.176 24.3068C443.748 24.6629 444.386 24.8409 445.091 24.8409C445.477 24.8409 445.848 24.7879 446.205 24.6818C446.561 24.5758 446.884 24.4186 447.176 24.2102C447.472 23.9981 447.722 23.7386 447.926 23.4318C448.134 23.1212 448.28 22.7652 448.364 22.3636H449.773C449.667 22.9583 449.473 23.4905 449.193 23.9602C448.913 24.4299 448.564 24.8295 448.148 25.1591C447.731 25.4848 447.263 25.733 446.744 25.9034C446.229 26.0739 445.678 26.1591 445.091 26.1591C444.098 26.1591 443.216 25.9167 442.443 25.4318C441.67 24.947 441.063 24.2576 440.619 23.3636C440.176 22.4697 439.955 21.4091 439.955 20.1818C439.955 18.9545 440.176 17.8939 440.619 17C441.063 16.1061 441.67 15.4167 442.443 14.9318C443.216 14.447 444.098 14.2045 445.091 14.2045C445.678 14.2045 446.229 14.2898 446.744 14.4602C447.263 14.6307 447.731 14.8807 448.148 15.2102C448.564 15.536 448.913 15.9337 449.193 16.4034C449.473 16.8693 449.667 17.4015 449.773 18ZM451.868 26V17.2727H453.163V18.5909H453.254C453.413 18.1591 453.701 17.8087 454.118 17.5398C454.535 17.2708 455.004 17.1364 455.527 17.1364C455.625 17.1364 455.749 17.1383 455.896 17.142C456.044 17.1458 456.156 17.1515 456.232 17.1591V18.5227C456.186 18.5114 456.082 18.4943 455.919 18.4716C455.76 18.4451 455.591 18.4318 455.413 18.4318C454.989 18.4318 454.61 18.5208 454.277 18.6989C453.947 18.8731 453.686 19.1155 453.493 19.4261C453.304 19.733 453.209 20.0833 453.209 20.4773V26H451.868ZM461.214 26.1818C460.374 26.1818 459.648 25.9962 459.038 25.625C458.432 25.25 457.964 24.7273 457.635 24.0568C457.309 23.3826 457.146 22.5985 457.146 21.7045C457.146 20.8106 457.309 20.0227 457.635 19.3409C457.964 18.6553 458.423 18.1212 459.01 17.7386C459.601 17.3523 460.29 17.1591 461.078 17.1591C461.533 17.1591 461.982 17.2348 462.425 17.3864C462.868 17.5379 463.271 17.7841 463.635 18.125C463.999 18.4621 464.288 18.9091 464.504 19.4659C464.72 20.0227 464.828 20.7083 464.828 21.5227V22.0909H458.101V20.9318H463.464C463.464 20.4394 463.366 20 463.169 19.6136C462.976 19.2273 462.699 18.9223 462.339 18.6989C461.983 18.4754 461.563 18.3636 461.078 18.3636C460.544 18.3636 460.082 18.4962 459.692 18.7614C459.305 19.0227 459.008 19.3636 458.8 19.7841C458.591 20.2045 458.487 20.6553 458.487 21.1364V21.9091C458.487 22.5682 458.601 23.1269 458.828 23.5852C459.059 24.0398 459.379 24.3864 459.788 24.625C460.197 24.8598 460.673 24.9773 461.214 24.9773C461.567 24.9773 461.885 24.928 462.169 24.8295C462.457 24.7273 462.705 24.5758 462.913 24.375C463.122 24.1705 463.283 23.9167 463.396 23.6136L464.692 23.9773C464.555 24.4167 464.326 24.803 464.004 25.1364C463.682 25.4659 463.285 25.7235 462.811 25.9091C462.338 26.0909 461.805 26.1818 461.214 26.1818ZM469.436 26.2045C468.883 26.2045 468.381 26.1004 467.93 25.892C467.48 25.6799 467.122 25.375 466.857 24.9773C466.591 24.5758 466.459 24.0909 466.459 23.5227C466.459 23.0227 466.557 22.6174 466.754 22.3068C466.951 21.9924 467.214 21.7462 467.544 21.5682C467.874 21.3902 468.237 21.2576 468.635 21.1705C469.036 21.0795 469.44 21.0076 469.845 20.9545C470.375 20.8864 470.805 20.8352 471.135 20.8011C471.468 20.7633 471.711 20.7008 471.862 20.6136C472.018 20.5265 472.095 20.375 472.095 20.1591V20.1136C472.095 19.553 471.942 19.1174 471.635 18.8068C471.332 18.4962 470.872 18.3409 470.254 18.3409C469.614 18.3409 469.112 18.4811 468.749 18.7614C468.385 19.0417 468.129 19.3409 467.982 19.6591L466.709 19.2045C466.936 18.6742 467.239 18.2614 467.618 17.9659C468 17.6667 468.417 17.4583 468.868 17.3409C469.322 17.2197 469.769 17.1591 470.209 17.1591C470.489 17.1591 470.811 17.1932 471.175 17.2614C471.542 17.3258 471.896 17.4602 472.237 17.6648C472.582 17.8693 472.868 18.178 473.095 18.5909C473.322 19.0038 473.436 19.5568 473.436 20.25V26H472.095V24.8182H472.027C471.936 25.0076 471.785 25.2102 471.572 25.4261C471.36 25.642 471.078 25.8258 470.726 25.9773C470.374 26.1288 469.944 26.2045 469.436 26.2045ZM469.641 25C470.171 25 470.618 24.8958 470.982 24.6875C471.349 24.4792 471.625 24.2102 471.811 23.8807C472 23.5511 472.095 23.2045 472.095 22.8409V21.6136C472.038 21.6818 471.913 21.7443 471.72 21.8011C471.531 21.8542 471.311 21.9015 471.061 21.9432C470.815 21.9811 470.574 22.0152 470.339 22.0455C470.108 22.072 469.921 22.0947 469.777 22.1136C469.429 22.1591 469.103 22.233 468.8 22.3352C468.5 22.4337 468.258 22.5833 468.072 22.7841C467.891 22.9811 467.8 23.25 467.8 23.5909C467.8 24.0568 467.972 24.4091 468.317 24.6477C468.665 24.8826 469.107 25 469.641 25ZM479.679 17.2727V18.4091H475.156V17.2727H479.679ZM476.474 15.1818H477.815V23.5C477.815 23.8788 477.87 24.1629 477.98 24.3523C478.094 24.5379 478.238 24.6629 478.412 24.7273C478.59 24.7879 478.777 24.8182 478.974 24.8182C479.122 24.8182 479.243 24.8106 479.338 24.7955C479.433 24.7765 479.509 24.7614 479.565 24.75L479.838 25.9545C479.747 25.9886 479.62 26.0227 479.457 26.0568C479.295 26.0947 479.088 26.1136 478.838 26.1136C478.459 26.1136 478.088 26.0322 477.724 25.8693C477.365 25.7064 477.065 25.4583 476.827 25.125C476.592 24.7917 476.474 24.3712 476.474 23.8636V15.1818ZM481.696 26V17.2727H483.037V26H481.696ZM482.378 15.8182C482.116 15.8182 481.891 15.7292 481.702 15.5511C481.516 15.3731 481.423 15.1591 481.423 14.9091C481.423 14.6591 481.516 14.4451 481.702 14.267C481.891 14.089 482.116 14 482.378 14C482.639 14 482.863 14.089 483.048 14.267C483.238 14.4451 483.332 14.6591 483.332 14.9091C483.332 15.1591 483.238 15.3731 483.048 15.5511C482.863 15.7292 482.639 15.8182 482.378 15.8182ZM492.629 17.2727L489.402 26H488.038L484.811 17.2727H486.266L488.675 24.2273H488.766L491.175 17.2727H492.629ZM497.746 26.1818C496.905 26.1818 496.179 25.9962 495.57 25.625C494.964 25.25 494.496 24.7273 494.166 24.0568C493.84 23.3826 493.678 22.5985 493.678 21.7045C493.678 20.8106 493.84 20.0227 494.166 19.3409C494.496 18.6553 494.954 18.1212 495.541 17.7386C496.132 17.3523 496.821 17.1591 497.609 17.1591C498.064 17.1591 498.513 17.2348 498.956 17.3864C499.399 17.5379 499.803 17.7841 500.166 18.125C500.53 18.4621 500.82 18.9091 501.036 19.4659C501.251 20.0227 501.359 20.7083 501.359 21.5227V22.0909H494.632V20.9318H499.996C499.996 20.4394 499.897 20 499.7 19.6136C499.507 19.2273 499.231 18.9223 498.871 18.6989C498.515 18.4754 498.094 18.3636 497.609 18.3636C497.075 18.3636 496.613 18.4962 496.223 18.7614C495.837 19.0227 495.539 19.3636 495.331 19.7841C495.123 20.2045 495.018 20.6553 495.018 21.1364V21.9091C495.018 22.5682 495.132 23.1269 495.359 23.5852C495.59 24.0398 495.911 24.3864 496.32 24.625C496.729 24.8598 497.204 24.9773 497.746 24.9773C498.098 24.9773 498.416 24.928 498.7 24.8295C498.988 24.7273 499.236 24.5758 499.445 24.375C499.653 24.1705 499.814 23.9167 499.928 23.6136L501.223 23.9773C501.087 24.4167 500.857 24.803 500.536 25.1364C500.214 25.4659 499.816 25.7235 499.342 25.9091C498.869 26.0909 498.337 26.1818 497.746 26.1818ZM507.445 15.6136V14.3636H516.172V15.6136H512.513V26H511.104V15.6136H507.445ZM519.506 20.75V26H518.165V14.3636H519.506V18.6364H519.619C519.824 18.1856 520.131 17.8277 520.54 17.5625C520.953 17.2936 521.502 17.1591 522.188 17.1591C522.782 17.1591 523.303 17.2784 523.75 17.517C524.197 17.7519 524.544 18.1136 524.79 18.6023C525.04 19.0871 525.165 19.7045 525.165 20.4545V26H523.824V20.5455C523.824 19.8523 523.644 19.3163 523.284 18.9375C522.928 18.5549 522.434 18.3636 521.801 18.3636C521.362 18.3636 520.968 18.4564 520.619 18.642C520.275 18.8277 520.002 19.0985 519.801 19.4545C519.604 19.8106 519.506 20.2424 519.506 20.75ZM527.618 26V17.2727H528.959V26H527.618ZM528.3 15.8182C528.038 15.8182 527.813 15.7292 527.624 15.5511C527.438 15.3731 527.345 15.1591 527.345 14.9091C527.345 14.6591 527.438 14.4451 527.624 14.267C527.813 14.089 528.038 14 528.3 14C528.561 14 528.785 14.089 528.97 14.267C529.16 14.4451 529.254 14.6591 529.254 14.9091C529.254 15.1591 529.16 15.3731 528.97 15.5511C528.785 15.7292 528.561 15.8182 528.3 15.8182ZM532.756 20.75V26H531.415V17.2727H532.71V18.6364H532.824C533.028 18.1932 533.339 17.8371 533.756 17.5682C534.172 17.2955 534.71 17.1591 535.369 17.1591C535.96 17.1591 536.477 17.2803 536.92 17.5227C537.364 17.7614 537.708 18.125 537.955 18.6136C538.201 19.0985 538.324 19.7121 538.324 20.4545V26H536.983V20.5455C536.983 19.8598 536.805 19.3258 536.449 18.9432C536.093 18.5568 535.604 18.3636 534.983 18.3636C534.555 18.3636 534.172 18.4564 533.835 18.642C533.502 18.8277 533.239 19.0985 533.045 19.4545C532.852 19.8106 532.756 20.2424 532.756 20.75ZM542.024 22.8182L542.001 21.1591H542.274L546.092 17.2727H547.751L543.683 21.3864H543.57L542.024 22.8182ZM540.774 26V14.3636H542.115V26H540.774ZM546.32 26L542.911 21.6818L543.865 20.75L548.024 26H546.32ZM549.477 26V17.2727H550.818V26H549.477ZM550.159 15.8182C549.898 15.8182 549.672 15.7292 549.483 15.5511C549.297 15.3731 549.205 15.1591 549.205 14.9091C549.205 14.6591 549.297 14.4451 549.483 14.267C549.672 14.089 549.898 14 550.159 14C550.42 14 550.644 14.089 550.83 14.267C551.019 14.4451 551.114 14.6591 551.114 14.9091C551.114 15.1591 551.019 15.3731 550.83 15.5511C550.644 15.7292 550.42 15.8182 550.159 15.8182ZM554.615 20.75V26H553.274V17.2727H554.57V18.6364H554.683C554.888 18.1932 555.198 17.8371 555.615 17.5682C556.032 17.2955 556.57 17.1591 557.229 17.1591C557.82 17.1591 558.337 17.2803 558.78 17.5227C559.223 17.7614 559.568 18.125 559.814 18.6136C560.06 19.0985 560.183 19.7121 560.183 20.4545V26H558.842V20.5455C558.842 19.8598 558.664 19.3258 558.308 18.9432C557.952 18.5568 557.464 18.3636 556.842 18.3636C556.414 18.3636 556.032 18.4564 555.695 18.642C555.361 18.8277 555.098 19.0985 554.905 19.4545C554.712 19.8106 554.615 20.2424 554.615 20.75ZM566.156 29.4545C565.509 29.4545 564.952 29.3712 564.486 29.2045C564.02 29.0417 563.632 28.8258 563.321 28.5568C563.014 28.2917 562.77 28.0076 562.588 27.7045L563.656 26.9545C563.777 27.1136 563.931 27.2955 564.116 27.5C564.302 27.7083 564.556 27.8883 564.878 28.0398C565.204 28.1951 565.63 28.2727 566.156 28.2727C566.861 28.2727 567.442 28.1023 567.901 27.7614C568.359 27.4205 568.588 26.8864 568.588 26.1591V24.3864H568.474C568.376 24.5455 568.236 24.7424 568.054 24.9773C567.876 25.2083 567.618 25.4148 567.281 25.5966C566.948 25.7746 566.497 25.8636 565.929 25.8636C565.224 25.8636 564.592 25.697 564.031 25.3636C563.474 25.0303 563.033 24.5455 562.707 23.9091C562.385 23.2727 562.224 22.5 562.224 21.5909C562.224 20.697 562.382 19.9186 562.696 19.2557C563.01 18.589 563.448 18.0739 564.009 17.7102C564.569 17.3428 565.217 17.1591 565.952 17.1591C566.52 17.1591 566.971 17.2538 567.304 17.4432C567.641 17.6288 567.899 17.8409 568.077 18.0795C568.259 18.3144 568.399 18.5076 568.497 18.6591H568.634V17.2727H569.929V26.25C569.929 27 569.759 27.6098 569.418 28.0795C569.08 28.553 568.626 28.8996 568.054 29.1193C567.486 29.3428 566.853 29.4545 566.156 29.4545ZM566.111 24.6591C566.649 24.6591 567.103 24.536 567.474 24.2898C567.846 24.0436 568.128 23.6894 568.321 23.2273C568.514 22.7652 568.611 22.2121 568.611 21.5682C568.611 20.9394 568.516 20.3845 568.327 19.9034C568.137 19.4223 567.857 19.0455 567.486 18.7727C567.115 18.5 566.656 18.3636 566.111 18.3636C565.543 18.3636 565.069 18.5076 564.69 18.7955C564.315 19.0833 564.033 19.4697 563.844 19.9545C563.658 20.4394 563.565 20.9773 563.565 21.5682C563.565 22.1742 563.66 22.7102 563.849 23.1761C564.043 23.6383 564.327 24.0019 564.702 24.267C565.08 24.5284 565.55 24.6591 566.111 24.6591Z" fill="#1D2939" fill-opacity="0.7"/>
<defs>
<clipPath id="clip0_1_180">
<rect width="32" height="32" fill="white" transform="translate(197 4)"/>
</clipPath>
</defs>
</svg>
