<svg width="44" height="44" viewBox="0 0 44 44" fill="none" xmlns="http://www.w3.org/2000/svg">
<rect x="0.5" y="0.5" width="43" height="43" rx="21.5" fill="#C8F031" stroke="#0C0F03"/>
<path d="M30 30L26.2223 26.2156M28.3158 21.1579C28.3158 23.0563 27.5617 24.8769 26.2193 26.2193C24.8769 27.5617 23.0563 28.3158 21.1579 28.3158C19.2595 28.3158 17.4389 27.5617 16.0965 26.2193C14.7541 24.8769 14 23.0563 14 21.1579C14 19.2595 14.7541 17.4389 16.0965 16.0965C17.4389 14.7541 19.2595 14 21.1579 14C23.0563 14 24.8769 14.7541 26.2193 16.0965C27.5617 17.4389 28.3158 19.2595 28.3158 21.1579V21.1579Z" stroke="#0C0F03" stroke-width="1.5" stroke-linecap="round"/>
</svg>
